G04 #@! TF.GenerationSoftware,KiCad,Pcbnew,7.0.6-0*
G04 #@! TF.CreationDate,2023-08-14T12:50:15+03:00*
G04 #@! TF.ProjectId,trng,74726e67-2e6b-4696-9361-645f70636258,rev?*
G04 #@! TF.SameCoordinates,Original*
G04 #@! TF.FileFunction,Soldermask,Bot*
G04 #@! TF.FilePolarity,Negative*
%FSLAX46Y46*%
G04 Gerber Fmt 4.6, Leading zero omitted, Abs format (unit mm)*
G04 Created by KiCad (PCBNEW 7.0.6-0) date 2023-08-14 12:50:15*
%MOMM*%
%LPD*%
G01*
G04 APERTURE LIST*
G04 Aperture macros list*
%AMFreePoly0*
4,1,219,5.849828,5.939337,5.858481,5.940633,5.878677,5.930125,5.900370,5.923198,5.905549,5.916144,5.913308,5.912108,6.113607,5.708382,6.115016,5.705555,6.117727,5.703930,6.492868,5.272955,6.494275,5.269645,6.497225,5.267586,6.841692,4.811720,6.842867,4.808320,6.845667,4.806063,7.157812,4.327485,7.158749,4.324012,7.161386,4.321567,7.439717,3.822565,7.440412,3.819036,
7.442874,3.816414,7.686062,3.299372,7.686512,3.295803,7.688786,3.293018,7.895666,2.760409,7.895868,2.756818,7.897945,2.753882,8.067529,2.208252,8.067482,2.204656,8.069352,2.201583,8.200830,1.645538,8.200535,1.641953,8.202187,1.638759,8.294930,1.074960,8.294388,1.071404,8.295816,1.068103,8.349381,0.499242,8.348594,0.495730,8.349790,0.492340,8.363921,-0.078862,
8.362894,-0.082308,8.363853,-0.085775,8.338482,-0.656588,8.337220,-0.659954,8.337937,-0.663480,8.273186,-1.231176,8.271693,-1.234449,8.272165,-1.238014,8.168343,-1.799880,8.166629,-1.803040,8.166853,-1.806631,8.024456,-2.359980,8.022526,-2.363016,8.022502,-2.366611,7.842212,-2.908799,7.840078,-2.911694,7.839805,-2.915280,7.622482,-3.443714,7.620153,-3.446454,7.619633,-3.450014,
7.366317,-3.962167,7.363803,-3.964740,7.363039,-3.968255,7.074941,-4.461683,7.072255,-4.464077,7.071250,-4.467530,6.749746,-4.939870,6.746903,-4.942071,6.745661,-4.945448,6.392288,-5.394446,6.389299,-5.396446,6.387827,-5.399728,6.004275,-5.823237,6.001154,-5.825026,5.999460,-5.828197,5.587561,-6.224192,5.584324,-6.225761,5.582414,-6.228808,5.144138,-6.595395,5.140801,-6.596736,
5.138685,-6.599645,4.676127,-6.935072,4.672705,-6.936180,4.670393,-6.938935,4.185764,-7.241600,4.182273,-7.242469,4.179777,-7.245057,3.675394,-7.513513,3.671852,-7.514138,3.669182,-7.516549,3.147454,-7.749512,3.143877,-7.749891,3.141047,-7.752111,2.604470,-7.948468,2.600874,-7.948599,2.597898,-7.950618,2.049037,-8.109430,2.045442,-8.109313,2.042333,-8.111121,1.483809,-8.231629,
1.480229,-8.231263,1.477004,-8.232852,0.911488,-8.314480,0.907944,-8.313868,0.904615,-8.315231,0.334810,-8.357589,0.331316,-8.356734,0.327902,-8.357863,-0.243468,-8.360749,-0.246894,-8.359654,-0.250379,-8.360545,-0.820582,-8.323944,-0.823925,-8.322615,-0.827462,-8.323262,-1.393774,-8.247351,-1.397016,-8.245794,-1.400591,-8.246196,-1.960303,-8.131335,-1.963429,-8.129558,-1.967023,-8.129712,
-2.517462,-7.976452,-2.520459,-7.974463,-2.524054,-7.974368,-3.062588,-7.783441,-3.065440,-7.781250,-3.069020,-7.780907,-3.593075,-7.553226,-3.595769,-7.550843,-3.599317,-7.550253,-4.106386,-7.286905,-4.108908,-7.284342,-4.112407,-7.283509,-4.600070,-6.985753,-4.602409,-6.983023,-4.605843,-6.981949,-5.071764,-6.651211,-5.073910,-6.648324,-5.077261,-6.647016,-5.519217,-6.284874,-5.521158,-6.281846,
-5.524409,-6.280310,-5.940287,-5.888497,-5.942014,-5.885342,-5.945152,-5.883585,-6.332962,-5.463972,-6.334467,-5.460704,-6.337476,-5.458735,-6.695366,-5.013329,-6.696642,-5.009966,-6.699508,-5.007793,-7.025766,-4.538723,-7.026806,-4.535281,-7.029515,-4.532915,-7.322583,-4.042423,-7.323383,-4.038916,-7.325922,-4.036369,-7.584398,-3.526798,-7.584954,-3.523244,-7.587310,-3.520528,-7.809959,-2.994316,
-7.810268,-2.990734,-7.812432,-2.987860,-7.998190,-2.447522,-7.998251,-2.443925,-8.000210,-2.440910,-8.148188,-1.889028,-8.148000,-1.885436,-8.149747,-1.882292,-8.259239,-1.321504,-8.258803,-1.317933,-8.260328,-1.314677,-8.330810,-0.747663,-8.330129,-0.744131,-8.331425,-0.740777,-8.362560,-0.170249,-8.361636,-0.166773,-8.362698,-0.163337,-8.354337,0.407979,-8.353175,0.411382,-8.353997,0.414885,
-8.306180,0.984256,-8.304786,0.987571,-8.305364,0.991122,-8.218321,1.555830,-8.216701,1.559041,-8.217032,1.562623,-8.091177,2.119966,-8.089339,2.123057,-8.089422,2.126654,-7.925357,2.673969,-7.923310,2.676926,-7.923144,2.680519,-7.721654,3.215191,-7.719408,3.217999,-7.718994,3.221572,-7.481042,3.741044,-7.478606,3.743691,-7.477947,3.747226,-7.204671,4.249013,-7.202058,4.251485,
-7.201156,4.254968,-6.893860,4.736675,-6.891083,4.738960,-6.889943,4.742371,-6.550099,5.201693,-6.547171,5.203781,-6.545797,5.207106,-6.175026,5.641848,-6.172332,5.643501,-6.170951,5.646342,-5.972720,5.852080,-5.965001,5.856195,-5.959895,5.863299,-5.938275,5.870444,-5.918183,5.881157,-5.909517,5.879949,-5.901213,5.882694,5.841495,5.941999,5.849828,5.939337,5.849828,5.939337,
$1*%
G04 Aperture macros list end*
%ADD10C,1.400000*%
%ADD11O,1.400000X1.400000*%
%ADD12R,1.700000X1.700000*%
%ADD13O,1.700000X1.700000*%
%ADD14R,1.200000X1.200000*%
%ADD15C,1.200000*%
%ADD16R,1.600000X1.600000*%
%ADD17O,1.600000X1.600000*%
%ADD18R,1.270000X5.080000*%
%ADD19FreePoly0,0.000000*%
%ADD20C,1.700000*%
G04 APERTURE END LIST*
D10*
X158260000Y-101270000D03*
D11*
X156360000Y-101270000D03*
D10*
X156360000Y-105080000D03*
D11*
X158260000Y-105080000D03*
D10*
X136680000Y-102540000D03*
D11*
X138580000Y-102540000D03*
D10*
X132230000Y-113970000D03*
D11*
X132230000Y-115870000D03*
D10*
X158260000Y-97460000D03*
D11*
X156360000Y-97460000D03*
D10*
X136680000Y-97460000D03*
D11*
X138580000Y-97460000D03*
D10*
X136680000Y-100000000D03*
D11*
X138580000Y-100000000D03*
D12*
X161440000Y-110160000D03*
D13*
X161440000Y-107620000D03*
X161440000Y-105080000D03*
X161440000Y-102540000D03*
X161440000Y-100000000D03*
X161440000Y-97460000D03*
X161440000Y-94920000D03*
X161440000Y-92380000D03*
D14*
X152780000Y-101270000D03*
D15*
X151280000Y-101270000D03*
D10*
X136680000Y-105080000D03*
D11*
X138580000Y-105080000D03*
D12*
X133500000Y-92380000D03*
D13*
X133500000Y-94920000D03*
X133500000Y-97460000D03*
X133500000Y-100000000D03*
X133500000Y-102540000D03*
X133500000Y-105080000D03*
X133500000Y-107620000D03*
X133500000Y-110160000D03*
D16*
X158900000Y-107620000D03*
D17*
X156360000Y-107620000D03*
X153820000Y-107620000D03*
X151280000Y-107620000D03*
X148740000Y-107620000D03*
X146200000Y-107620000D03*
X143660000Y-107620000D03*
X141120000Y-107620000D03*
X138580000Y-107620000D03*
X136040000Y-107620000D03*
X136040000Y-115240000D03*
X138580000Y-115240000D03*
X141120000Y-115240000D03*
X143660000Y-115240000D03*
X146200000Y-115240000D03*
X148740000Y-115240000D03*
X151280000Y-115240000D03*
X153820000Y-115240000D03*
X156360000Y-115240000D03*
X158900000Y-115240000D03*
D10*
X162710000Y-113970000D03*
D11*
X162710000Y-115870000D03*
D18*
X136485000Y-88570000D03*
X158455000Y-88570000D03*
D19*
X147470000Y-88570000D03*
D12*
X129980000Y-83330000D03*
D20*
X129980000Y-89830000D03*
X134480000Y-83330000D03*
X134480000Y-89830000D03*
M02*
