G04 #@! TF.GenerationSoftware,KiCad,Pcbnew,7.0.6-0*
G04 #@! TF.CreationDate,2023-08-14T12:50:15+03:00*
G04 #@! TF.ProjectId,trng,74726e67-2e6b-4696-9361-645f70636258,rev?*
G04 #@! TF.SameCoordinates,Original*
G04 #@! TF.FileFunction,Soldermask,Top*
G04 #@! TF.FilePolarity,Negative*
%FSLAX46Y46*%
G04 Gerber Fmt 4.6, Leading zero omitted, Abs format (unit mm)*
G04 Created by KiCad (PCBNEW 7.0.6-0) date 2023-08-14 12:50:15*
%MOMM*%
%LPD*%
G01*
G04 APERTURE LIST*
%ADD10C,1.400000*%
%ADD11O,1.400000X1.400000*%
%ADD12R,1.700000X1.700000*%
%ADD13O,1.700000X1.700000*%
%ADD14R,1.200000X1.200000*%
%ADD15C,1.200000*%
%ADD16R,1.600000X1.600000*%
%ADD17O,1.600000X1.600000*%
%ADD18C,1.700000*%
G04 APERTURE END LIST*
D10*
X158260000Y-101270000D03*
D11*
X156360000Y-101270000D03*
D10*
X156360000Y-105080000D03*
D11*
X158260000Y-105080000D03*
D10*
X136680000Y-102540000D03*
D11*
X138580000Y-102540000D03*
D10*
X132230000Y-113970000D03*
D11*
X132230000Y-115870000D03*
D10*
X158260000Y-97460000D03*
D11*
X156360000Y-97460000D03*
D10*
X136680000Y-97460000D03*
D11*
X138580000Y-97460000D03*
D10*
X136680000Y-100000000D03*
D11*
X138580000Y-100000000D03*
D12*
X161440000Y-110160000D03*
D13*
X161440000Y-107620000D03*
X161440000Y-105080000D03*
X161440000Y-102540000D03*
X161440000Y-100000000D03*
X161440000Y-97460000D03*
X161440000Y-94920000D03*
X161440000Y-92380000D03*
D14*
X152780000Y-101270000D03*
D15*
X151280000Y-101270000D03*
D10*
X136680000Y-105080000D03*
D11*
X138580000Y-105080000D03*
D12*
X133500000Y-92380000D03*
D13*
X133500000Y-94920000D03*
X133500000Y-97460000D03*
X133500000Y-100000000D03*
X133500000Y-102540000D03*
X133500000Y-105080000D03*
X133500000Y-107620000D03*
X133500000Y-110160000D03*
D16*
X158900000Y-107620000D03*
D17*
X156360000Y-107620000D03*
X153820000Y-107620000D03*
X151280000Y-107620000D03*
X148740000Y-107620000D03*
X146200000Y-107620000D03*
X143660000Y-107620000D03*
X141120000Y-107620000D03*
X138580000Y-107620000D03*
X136040000Y-107620000D03*
X136040000Y-115240000D03*
X138580000Y-115240000D03*
X141120000Y-115240000D03*
X143660000Y-115240000D03*
X146200000Y-115240000D03*
X148740000Y-115240000D03*
X151280000Y-115240000D03*
X153820000Y-115240000D03*
X156360000Y-115240000D03*
X158900000Y-115240000D03*
D10*
X162710000Y-113970000D03*
D11*
X162710000Y-115870000D03*
D12*
X129980000Y-83330000D03*
D18*
X129980000Y-89830000D03*
X134480000Y-83330000D03*
X134480000Y-89830000D03*
M02*
