M48
; DRILL file {KiCad 7.0.6-0} date 2023 August 14, Monday 12:50:27
; FORMAT={-:-/ absolute / metric / decimal}
; #@! TF.CreationDate,2023-08-14T12:50:27+03:00
; #@! TF.GenerationSoftware,Kicad,Pcbnew,7.0.6-0
; #@! TF.FileFunction,Plated,1,2,PTH
FMAT,2
METRIC
; #@! TA.AperFunction,Plated,PTH,ViaDrill
T1C0.400
; #@! TA.AperFunction,Plated,PTH,ComponentDrill
T2C0.600
; #@! TA.AperFunction,Plated,PTH,ComponentDrill
T3C0.700
; #@! TA.AperFunction,Plated,PTH,ComponentDrill
T4C0.800
; #@! TA.AperFunction,Plated,PTH,ComponentDrill
T5C1.000
%
G90
G05
T1
X129.5Y-108.75
X137.9Y-84.45
X140.75Y-110.25
X146.32Y-111.07
X147.57Y-106.32
X149.0Y-101.25
X152.477Y-105.153
X157.63Y-110.16
X159.445Y-103.57
X161.75Y-84.5
X161.82Y-88.57
X164.4Y-114.07
T2
X151.28Y-101.27
X152.78Y-101.27
T3
X132.23Y-113.97
X132.23Y-115.87
X136.68Y-97.46
X136.68Y-100.0
X136.68Y-102.54
X136.68Y-105.08
X138.58Y-97.46
X138.58Y-100.0
X138.58Y-102.54
X138.58Y-105.08
X156.36Y-97.46
X156.36Y-101.27
X156.36Y-105.08
X158.26Y-97.46
X158.26Y-101.27
X158.26Y-105.08
X162.71Y-113.97
X162.71Y-115.87
T4
X136.04Y-107.62
X136.04Y-115.24
X138.58Y-107.62
X138.58Y-115.24
X141.12Y-107.62
X141.12Y-115.24
X143.66Y-107.62
X143.66Y-115.24
X146.2Y-107.62
X146.2Y-115.24
X148.74Y-107.62
X148.74Y-115.24
X151.28Y-107.62
X151.28Y-115.24
X153.82Y-107.62
X153.82Y-115.24
X156.36Y-107.62
X156.36Y-115.24
X158.9Y-107.62
X158.9Y-115.24
T5
X129.98Y-83.33
X129.98Y-89.83
X133.5Y-92.38
X133.5Y-94.92
X133.5Y-97.46
X133.5Y-100.0
X133.5Y-102.54
X133.5Y-105.08
X133.5Y-107.62
X133.5Y-110.16
X134.48Y-83.33
X134.48Y-89.83
X161.44Y-92.38
X161.44Y-94.92
X161.44Y-97.46
X161.44Y-100.0
X161.44Y-102.54
X161.44Y-105.08
X161.44Y-107.62
X161.44Y-110.16
T0
M30
