G04 #@! TF.GenerationSoftware,KiCad,Pcbnew,7.0.6-0*
G04 #@! TF.CreationDate,2023-08-14T12:50:15+03:00*
G04 #@! TF.ProjectId,trng,74726e67-2e6b-4696-9361-645f70636258,rev?*
G04 #@! TF.SameCoordinates,Original*
G04 #@! TF.FileFunction,Copper,L2,Bot*
G04 #@! TF.FilePolarity,Positive*
%FSLAX46Y46*%
G04 Gerber Fmt 4.6, Leading zero omitted, Abs format (unit mm)*
G04 Created by KiCad (PCBNEW 7.0.6-0) date 2023-08-14 12:50:15*
%MOMM*%
%LPD*%
G01*
G04 APERTURE LIST*
G04 Aperture macros list*
%AMFreePoly0*
4,1,219,5.849828,5.939337,5.858481,5.940633,5.878677,5.930125,5.900370,5.923198,5.905549,5.916144,5.913308,5.912108,6.113607,5.708382,6.115016,5.705555,6.117727,5.703930,6.492868,5.272955,6.494275,5.269645,6.497225,5.267586,6.841692,4.811720,6.842867,4.808320,6.845667,4.806063,7.157812,4.327485,7.158749,4.324012,7.161386,4.321567,7.439717,3.822565,7.440412,3.819036,
7.442874,3.816414,7.686062,3.299372,7.686512,3.295803,7.688786,3.293018,7.895666,2.760409,7.895868,2.756818,7.897945,2.753882,8.067529,2.208252,8.067482,2.204656,8.069352,2.201583,8.200830,1.645538,8.200535,1.641953,8.202187,1.638759,8.294930,1.074960,8.294388,1.071404,8.295816,1.068103,8.349381,0.499242,8.348594,0.495730,8.349790,0.492340,8.363921,-0.078862,
8.362894,-0.082308,8.363853,-0.085775,8.338482,-0.656588,8.337220,-0.659954,8.337937,-0.663480,8.273186,-1.231176,8.271693,-1.234449,8.272165,-1.238014,8.168343,-1.799880,8.166629,-1.803040,8.166853,-1.806631,8.024456,-2.359980,8.022526,-2.363016,8.022502,-2.366611,7.842212,-2.908799,7.840078,-2.911694,7.839805,-2.915280,7.622482,-3.443714,7.620153,-3.446454,7.619633,-3.450014,
7.366317,-3.962167,7.363803,-3.964740,7.363039,-3.968255,7.074941,-4.461683,7.072255,-4.464077,7.071250,-4.467530,6.749746,-4.939870,6.746903,-4.942071,6.745661,-4.945448,6.392288,-5.394446,6.389299,-5.396446,6.387827,-5.399728,6.004275,-5.823237,6.001154,-5.825026,5.999460,-5.828197,5.587561,-6.224192,5.584324,-6.225761,5.582414,-6.228808,5.144138,-6.595395,5.140801,-6.596736,
5.138685,-6.599645,4.676127,-6.935072,4.672705,-6.936180,4.670393,-6.938935,4.185764,-7.241600,4.182273,-7.242469,4.179777,-7.245057,3.675394,-7.513513,3.671852,-7.514138,3.669182,-7.516549,3.147454,-7.749512,3.143877,-7.749891,3.141047,-7.752111,2.604470,-7.948468,2.600874,-7.948599,2.597898,-7.950618,2.049037,-8.109430,2.045442,-8.109313,2.042333,-8.111121,1.483809,-8.231629,
1.480229,-8.231263,1.477004,-8.232852,0.911488,-8.314480,0.907944,-8.313868,0.904615,-8.315231,0.334810,-8.357589,0.331316,-8.356734,0.327902,-8.357863,-0.243468,-8.360749,-0.246894,-8.359654,-0.250379,-8.360545,-0.820582,-8.323944,-0.823925,-8.322615,-0.827462,-8.323262,-1.393774,-8.247351,-1.397016,-8.245794,-1.400591,-8.246196,-1.960303,-8.131335,-1.963429,-8.129558,-1.967023,-8.129712,
-2.517462,-7.976452,-2.520459,-7.974463,-2.524054,-7.974368,-3.062588,-7.783441,-3.065440,-7.781250,-3.069020,-7.780907,-3.593075,-7.553226,-3.595769,-7.550843,-3.599317,-7.550253,-4.106386,-7.286905,-4.108908,-7.284342,-4.112407,-7.283509,-4.600070,-6.985753,-4.602409,-6.983023,-4.605843,-6.981949,-5.071764,-6.651211,-5.073910,-6.648324,-5.077261,-6.647016,-5.519217,-6.284874,-5.521158,-6.281846,
-5.524409,-6.280310,-5.940287,-5.888497,-5.942014,-5.885342,-5.945152,-5.883585,-6.332962,-5.463972,-6.334467,-5.460704,-6.337476,-5.458735,-6.695366,-5.013329,-6.696642,-5.009966,-6.699508,-5.007793,-7.025766,-4.538723,-7.026806,-4.535281,-7.029515,-4.532915,-7.322583,-4.042423,-7.323383,-4.038916,-7.325922,-4.036369,-7.584398,-3.526798,-7.584954,-3.523244,-7.587310,-3.520528,-7.809959,-2.994316,
-7.810268,-2.990734,-7.812432,-2.987860,-7.998190,-2.447522,-7.998251,-2.443925,-8.000210,-2.440910,-8.148188,-1.889028,-8.148000,-1.885436,-8.149747,-1.882292,-8.259239,-1.321504,-8.258803,-1.317933,-8.260328,-1.314677,-8.330810,-0.747663,-8.330129,-0.744131,-8.331425,-0.740777,-8.362560,-0.170249,-8.361636,-0.166773,-8.362698,-0.163337,-8.354337,0.407979,-8.353175,0.411382,-8.353997,0.414885,
-8.306180,0.984256,-8.304786,0.987571,-8.305364,0.991122,-8.218321,1.555830,-8.216701,1.559041,-8.217032,1.562623,-8.091177,2.119966,-8.089339,2.123057,-8.089422,2.126654,-7.925357,2.673969,-7.923310,2.676926,-7.923144,2.680519,-7.721654,3.215191,-7.719408,3.217999,-7.718994,3.221572,-7.481042,3.741044,-7.478606,3.743691,-7.477947,3.747226,-7.204671,4.249013,-7.202058,4.251485,
-7.201156,4.254968,-6.893860,4.736675,-6.891083,4.738960,-6.889943,4.742371,-6.550099,5.201693,-6.547171,5.203781,-6.545797,5.207106,-6.175026,5.641848,-6.172332,5.643501,-6.170951,5.646342,-5.972720,5.852080,-5.965001,5.856195,-5.959895,5.863299,-5.938275,5.870444,-5.918183,5.881157,-5.909517,5.879949,-5.901213,5.882694,5.841495,5.941999,5.849828,5.939337,5.849828,5.939337,
$1*%
G04 Aperture macros list end*
G04 #@! TA.AperFunction,ComponentPad*
%ADD10C,1.400000*%
G04 #@! TD*
G04 #@! TA.AperFunction,ComponentPad*
%ADD11O,1.400000X1.400000*%
G04 #@! TD*
G04 #@! TA.AperFunction,ComponentPad*
%ADD12R,1.700000X1.700000*%
G04 #@! TD*
G04 #@! TA.AperFunction,ComponentPad*
%ADD13O,1.700000X1.700000*%
G04 #@! TD*
G04 #@! TA.AperFunction,ComponentPad*
%ADD14R,1.200000X1.200000*%
G04 #@! TD*
G04 #@! TA.AperFunction,ComponentPad*
%ADD15C,1.200000*%
G04 #@! TD*
G04 #@! TA.AperFunction,ComponentPad*
%ADD16R,1.600000X1.600000*%
G04 #@! TD*
G04 #@! TA.AperFunction,ComponentPad*
%ADD17O,1.600000X1.600000*%
G04 #@! TD*
G04 #@! TA.AperFunction,SMDPad,CuDef*
%ADD18R,1.270000X5.080000*%
G04 #@! TD*
G04 #@! TA.AperFunction,SMDPad,CuDef*
%ADD19FreePoly0,0.000000*%
G04 #@! TD*
G04 #@! TA.AperFunction,ComponentPad*
%ADD20C,1.700000*%
G04 #@! TD*
G04 #@! TA.AperFunction,ViaPad*
%ADD21C,0.800000*%
G04 #@! TD*
G04 #@! TA.AperFunction,Conductor*
%ADD22C,0.250000*%
G04 #@! TD*
G04 APERTURE END LIST*
D10*
X158260000Y-101270000D03*
D11*
X156360000Y-101270000D03*
D10*
X156360000Y-105080000D03*
D11*
X158260000Y-105080000D03*
D10*
X136680000Y-102540000D03*
D11*
X138580000Y-102540000D03*
D10*
X132230000Y-113970000D03*
D11*
X132230000Y-115870000D03*
D10*
X158260000Y-97460000D03*
D11*
X156360000Y-97460000D03*
D10*
X136680000Y-97460000D03*
D11*
X138580000Y-97460000D03*
D10*
X136680000Y-100000000D03*
D11*
X138580000Y-100000000D03*
D12*
X161440000Y-110160000D03*
D13*
X161440000Y-107620000D03*
X161440000Y-105080000D03*
X161440000Y-102540000D03*
X161440000Y-100000000D03*
X161440000Y-97460000D03*
X161440000Y-94920000D03*
X161440000Y-92380000D03*
D14*
X152780000Y-101270000D03*
D15*
X151280000Y-101270000D03*
D10*
X136680000Y-105080000D03*
D11*
X138580000Y-105080000D03*
D12*
X133500000Y-92380000D03*
D13*
X133500000Y-94920000D03*
X133500000Y-97460000D03*
X133500000Y-100000000D03*
X133500000Y-102540000D03*
X133500000Y-105080000D03*
X133500000Y-107620000D03*
X133500000Y-110160000D03*
D16*
X158900000Y-107620000D03*
D17*
X156360000Y-107620000D03*
X153820000Y-107620000D03*
X151280000Y-107620000D03*
X148740000Y-107620000D03*
X146200000Y-107620000D03*
X143660000Y-107620000D03*
X141120000Y-107620000D03*
X138580000Y-107620000D03*
X136040000Y-107620000D03*
X136040000Y-115240000D03*
X138580000Y-115240000D03*
X141120000Y-115240000D03*
X143660000Y-115240000D03*
X146200000Y-115240000D03*
X148740000Y-115240000D03*
X151280000Y-115240000D03*
X153820000Y-115240000D03*
X156360000Y-115240000D03*
X158900000Y-115240000D03*
D10*
X162710000Y-113970000D03*
D11*
X162710000Y-115870000D03*
D18*
X136485000Y-88570000D03*
X158455000Y-88570000D03*
D19*
X147470000Y-88570000D03*
D12*
X129980000Y-83330000D03*
D20*
X129980000Y-89830000D03*
X134480000Y-83330000D03*
X134480000Y-89830000D03*
D21*
X161820000Y-88570000D03*
X140750000Y-110250000D03*
X161750000Y-84500000D03*
X137900000Y-84450000D03*
X149000000Y-101250000D03*
X129500000Y-108750000D03*
X164400500Y-114070000D03*
X159445500Y-103570000D03*
X157630000Y-110160000D03*
X152476850Y-105153150D03*
X146320000Y-111070000D03*
X147570000Y-106320000D03*
D22*
X158455000Y-93185000D02*
X158455000Y-88570000D01*
X152780000Y-98860000D02*
X158455000Y-93185000D01*
X152780000Y-101270000D02*
X152780000Y-98860000D01*
X161820000Y-88570000D02*
X158455000Y-88570000D01*
X151260000Y-101250000D02*
X151280000Y-101270000D01*
X147470000Y-88570000D02*
X151540000Y-84500000D01*
X129500000Y-108750000D02*
X129545000Y-108795000D01*
X142020000Y-88570000D02*
X147470000Y-88570000D01*
X137900000Y-84450000D02*
X142020000Y-88570000D01*
X151540000Y-84500000D02*
X161750000Y-84500000D01*
X147470000Y-88570000D02*
X147470000Y-97460000D01*
X129545000Y-108795000D02*
X134865000Y-108795000D01*
X147470000Y-97460000D02*
X151280000Y-101270000D01*
X134865000Y-108795000D02*
X136040000Y-107620000D01*
X149000000Y-101250000D02*
X151260000Y-101250000D01*
X133500000Y-107620000D02*
X136040000Y-105080000D01*
X136040000Y-105080000D02*
X136680000Y-105080000D01*
X133500000Y-110160000D02*
X133500000Y-112700000D01*
X133500000Y-112700000D02*
X132230000Y-113970000D01*
X164400500Y-115739500D02*
X164400500Y-114070000D01*
X142775000Y-116895000D02*
X163245000Y-116895000D01*
X163245000Y-116895000D02*
X164400500Y-115739500D01*
X141120000Y-115240000D02*
X142775000Y-116895000D01*
X143660000Y-111980000D02*
X145320000Y-110320000D01*
X159070000Y-106320000D02*
X159445500Y-105944500D01*
X156070000Y-110320000D02*
X157570000Y-108820000D01*
X157570000Y-106820000D02*
X158070000Y-106320000D01*
X157570000Y-108820000D02*
X157570000Y-106820000D01*
X145320000Y-110320000D02*
X156070000Y-110320000D01*
X158070000Y-106320000D02*
X159070000Y-106320000D01*
X143660000Y-115240000D02*
X143660000Y-111980000D01*
X159445500Y-105944500D02*
X159445500Y-103570000D01*
X148740000Y-115240000D02*
X153210000Y-110770000D01*
X153210000Y-110770000D02*
X157020000Y-110770000D01*
X157020000Y-110770000D02*
X157630000Y-110160000D01*
X160170000Y-108890000D02*
X160170000Y-96190000D01*
X153820000Y-115240000D02*
X160170000Y-108890000D01*
X160170000Y-96190000D02*
X161440000Y-94920000D01*
X162710000Y-92380000D02*
X161440000Y-92380000D01*
X156360000Y-115240000D02*
X158900000Y-112700000D01*
X163980000Y-111430000D02*
X163980000Y-93650000D01*
X162710000Y-112700000D02*
X163980000Y-111430000D01*
X158900000Y-112700000D02*
X162710000Y-112700000D01*
X163980000Y-93650000D02*
X162710000Y-92380000D01*
X138580000Y-115240000D02*
X139705000Y-114115000D01*
X139705000Y-114115000D02*
X141585991Y-114115000D01*
X141585991Y-114115000D02*
X142245000Y-114774009D01*
X142245000Y-115728604D02*
X142961396Y-116445000D01*
X162135000Y-116445000D02*
X162710000Y-115870000D01*
X142961396Y-116445000D02*
X162135000Y-116445000D01*
X142245000Y-114774009D02*
X142245000Y-115728604D01*
X154820000Y-97570000D02*
X154930000Y-97460000D01*
X154930000Y-97460000D02*
X156360000Y-97460000D01*
X152476850Y-105153150D02*
X154820000Y-102810000D01*
X154820000Y-102810000D02*
X154820000Y-97570000D01*
X136040000Y-115240000D02*
X132860000Y-115240000D01*
X132860000Y-115240000D02*
X132230000Y-115870000D01*
X146200000Y-111190000D02*
X146200000Y-115240000D01*
X156360000Y-102530001D02*
X152570001Y-106320000D01*
X152570001Y-106320000D02*
X147570000Y-106320000D01*
X146320000Y-111070000D02*
X146200000Y-111190000D01*
X156360000Y-101270000D02*
X156360000Y-102530001D01*
X142245000Y-104495000D02*
X139820000Y-102070000D01*
X142245000Y-108495000D02*
X142245000Y-104495000D01*
X142820000Y-109070000D02*
X142245000Y-108495000D01*
X156360000Y-107620000D02*
X154910000Y-109070000D01*
X139820000Y-102070000D02*
X139820000Y-98700000D01*
X139820000Y-98700000D02*
X138580000Y-97460000D01*
X154910000Y-109070000D02*
X142820000Y-109070000D01*
X138580000Y-105080000D02*
X138580000Y-107620000D01*
X134475000Y-91005000D02*
X140425000Y-96955000D01*
X131155000Y-91005000D02*
X134475000Y-91005000D01*
X129980000Y-89830000D02*
X131155000Y-91005000D01*
X140425000Y-101845000D02*
X146200000Y-107620000D01*
X140425000Y-96955000D02*
X140425000Y-101845000D01*
G04 #@! TA.AperFunction,Conductor*
G36*
X133350146Y-82365185D02*
G01*
X133395901Y-82417989D01*
X133405845Y-82487147D01*
X133384682Y-82540623D01*
X133306400Y-82652420D01*
X133306399Y-82652422D01*
X133206570Y-82866507D01*
X133206566Y-82866516D01*
X133145432Y-83094673D01*
X133145430Y-83094684D01*
X133124843Y-83329998D01*
X133124843Y-83330001D01*
X133145430Y-83565315D01*
X133145432Y-83565326D01*
X133206566Y-83793483D01*
X133206570Y-83793492D01*
X133306400Y-84007579D01*
X133306402Y-84007583D01*
X133365072Y-84091373D01*
X133365073Y-84091373D01*
X133996922Y-83459523D01*
X134020507Y-83539844D01*
X134098239Y-83660798D01*
X134206900Y-83754952D01*
X134337685Y-83814680D01*
X134347466Y-83816086D01*
X133718625Y-84444925D01*
X133802421Y-84503599D01*
X134016507Y-84603429D01*
X134016516Y-84603433D01*
X134244673Y-84664567D01*
X134244684Y-84664569D01*
X134479998Y-84685157D01*
X134480002Y-84685157D01*
X134715315Y-84664569D01*
X134715326Y-84664567D01*
X134943483Y-84603433D01*
X134943492Y-84603429D01*
X135157578Y-84503600D01*
X135157582Y-84503598D01*
X135241373Y-84444926D01*
X135241373Y-84444925D01*
X134612533Y-83816086D01*
X134622315Y-83814680D01*
X134753100Y-83754952D01*
X134861761Y-83660798D01*
X134939493Y-83539844D01*
X134963076Y-83459524D01*
X135594925Y-84091373D01*
X135594926Y-84091373D01*
X135653598Y-84007582D01*
X135653600Y-84007578D01*
X135753429Y-83793492D01*
X135753433Y-83793483D01*
X135814567Y-83565326D01*
X135814569Y-83565315D01*
X135835157Y-83330001D01*
X135835157Y-83329998D01*
X135814569Y-83094684D01*
X135814567Y-83094673D01*
X135753433Y-82866516D01*
X135753429Y-82866507D01*
X135653600Y-82652422D01*
X135653599Y-82652420D01*
X135575318Y-82540623D01*
X135552991Y-82474417D01*
X135570001Y-82406650D01*
X135620949Y-82358837D01*
X135676893Y-82345500D01*
X140862978Y-82345500D01*
X140930017Y-82365185D01*
X140975772Y-82417989D01*
X140985716Y-82487147D01*
X140956691Y-82550703D01*
X140952274Y-82555536D01*
X140933011Y-82575529D01*
X140932091Y-82576482D01*
X140929960Y-82577695D01*
X140923766Y-82584959D01*
X140921242Y-82587743D01*
X140915739Y-82593453D01*
X140914337Y-82595209D01*
X140913619Y-82596271D01*
X140909457Y-82601736D01*
X140542237Y-83032316D01*
X140533143Y-83042976D01*
X140531384Y-83044125D01*
X140527547Y-83049311D01*
X140524883Y-83052663D01*
X140521594Y-83056519D01*
X140520303Y-83058353D01*
X140519704Y-83059365D01*
X140516224Y-83064612D01*
X140513227Y-83068666D01*
X140172587Y-83529064D01*
X140167828Y-83535494D01*
X140166151Y-83536763D01*
X140162686Y-83542195D01*
X140160260Y-83545724D01*
X140157233Y-83549814D01*
X140156056Y-83551760D01*
X140155519Y-83552830D01*
X140152393Y-83558330D01*
X139837427Y-84052061D01*
X139835835Y-84053449D01*
X139832742Y-84059129D01*
X139830564Y-84062819D01*
X139827874Y-84067035D01*
X139827874Y-84067036D01*
X139826863Y-84069001D01*
X139826415Y-84070072D01*
X139823677Y-84075772D01*
X139553080Y-84572645D01*
X139543491Y-84590249D01*
X139542002Y-84591740D01*
X139539311Y-84597617D01*
X139537394Y-84601446D01*
X139535004Y-84605834D01*
X139535001Y-84605843D01*
X139534129Y-84607872D01*
X139533756Y-84608970D01*
X139531420Y-84614842D01*
X139287451Y-85147452D01*
X139286067Y-85149044D01*
X139283790Y-85155087D01*
X139282144Y-85159036D01*
X139280041Y-85163626D01*
X139279301Y-85165743D01*
X139279000Y-85166883D01*
X139277072Y-85172916D01*
X139275206Y-85177868D01*
X139075711Y-85707249D01*
X139070517Y-85721026D01*
X139069251Y-85722703D01*
X139067398Y-85728887D01*
X139066027Y-85732945D01*
X139064235Y-85737700D01*
X139063637Y-85739880D01*
X139063415Y-85741045D01*
X139061907Y-85747206D01*
X138896046Y-86300508D01*
X138893734Y-86308216D01*
X138892590Y-86309972D01*
X138891177Y-86316234D01*
X138890089Y-86320376D01*
X138888648Y-86325182D01*
X138888647Y-86325195D01*
X138888210Y-86327368D01*
X138888070Y-86328531D01*
X138886994Y-86334758D01*
X138761368Y-86891086D01*
X138757952Y-86906208D01*
X138756929Y-86908046D01*
X138755947Y-86914413D01*
X138755149Y-86918619D01*
X138754037Y-86923541D01*
X138753751Y-86925748D01*
X138753691Y-86926933D01*
X138753047Y-86933233D01*
X138666203Y-87496655D01*
X138663813Y-87512151D01*
X138662919Y-87514056D01*
X138662379Y-87520486D01*
X138661874Y-87524735D01*
X138661105Y-87529723D01*
X138660970Y-87531967D01*
X138660992Y-87533139D01*
X138660785Y-87539475D01*
X138611767Y-88123137D01*
X138611006Y-88125100D01*
X138610912Y-88131541D01*
X138610702Y-88135816D01*
X138610278Y-88140863D01*
X138610299Y-88143143D01*
X138610402Y-88144312D01*
X138610633Y-88150644D01*
X138602063Y-88736280D01*
X138601439Y-88738292D01*
X138601791Y-88744727D01*
X138601876Y-88749008D01*
X138601802Y-88754025D01*
X138601803Y-88754026D01*
X138601978Y-88756264D01*
X138602155Y-88757383D01*
X138602817Y-88763601D01*
X138603040Y-88767614D01*
X138633401Y-89323937D01*
X138634747Y-89348633D01*
X138634265Y-89350680D01*
X138635061Y-89357082D01*
X138635442Y-89361350D01*
X138635717Y-89366399D01*
X138636046Y-89368612D01*
X138636308Y-89369751D01*
X138637407Y-89375971D01*
X138638493Y-89384700D01*
X138705692Y-89925294D01*
X138709661Y-89957249D01*
X138709321Y-89959323D01*
X138710559Y-89965662D01*
X138711234Y-89969890D01*
X138711857Y-89974907D01*
X138712338Y-89977093D01*
X138712682Y-89978223D01*
X138714214Y-89984375D01*
X138826453Y-90559239D01*
X138826258Y-90561330D01*
X138827922Y-90567536D01*
X138828889Y-90571714D01*
X138829869Y-90576734D01*
X138830508Y-90578908D01*
X138830925Y-90580002D01*
X138832870Y-90585998D01*
X138833818Y-90589523D01*
X138969472Y-91095449D01*
X138969480Y-91095471D01*
X138984561Y-91151724D01*
X138984511Y-91153830D01*
X138986613Y-91159945D01*
X138987864Y-91164040D01*
X138989166Y-91168894D01*
X138989942Y-91170989D01*
X138990430Y-91172043D01*
X138992793Y-91177921D01*
X139183230Y-91731871D01*
X139183325Y-91733965D01*
X139185825Y-91739873D01*
X139187358Y-91743878D01*
X139189030Y-91748741D01*
X139189962Y-91750805D01*
X139190542Y-91751860D01*
X139193318Y-91757583D01*
X139398769Y-92243152D01*
X139398814Y-92243255D01*
X139421505Y-92296888D01*
X139421745Y-92298978D01*
X139424665Y-92304735D01*
X139426468Y-92308618D01*
X139428450Y-92313303D01*
X139429518Y-92315288D01*
X139430151Y-92316272D01*
X139433308Y-92321775D01*
X139437032Y-92329115D01*
X139698251Y-92844093D01*
X139698636Y-92846166D01*
X139701949Y-92851711D01*
X139704020Y-92855465D01*
X139706307Y-92859976D01*
X139707496Y-92861861D01*
X139708190Y-92862791D01*
X139711725Y-92868072D01*
X140012153Y-93370883D01*
X140012679Y-93372918D01*
X140016350Y-93378196D01*
X140018676Y-93381800D01*
X140021290Y-93386175D01*
X140022623Y-93387997D01*
X140023390Y-93388889D01*
X140027283Y-93393916D01*
X140056941Y-93436559D01*
X140056949Y-93436566D01*
X140361694Y-93874708D01*
X140362361Y-93876708D01*
X140366404Y-93881740D01*
X140368972Y-93885172D01*
X140371875Y-93889347D01*
X140373340Y-93891083D01*
X140374173Y-93891926D01*
X140378399Y-93896668D01*
X140382090Y-93901262D01*
X140745231Y-94353206D01*
X140746032Y-94355148D01*
X140750392Y-94359866D01*
X140753190Y-94363111D01*
X140756348Y-94367041D01*
X140757926Y-94368669D01*
X140758782Y-94369424D01*
X140763327Y-94373861D01*
X140767256Y-94378112D01*
X141148545Y-94790668D01*
X141160895Y-94804031D01*
X141161831Y-94805918D01*
X141166526Y-94810342D01*
X141169543Y-94813388D01*
X141172994Y-94817122D01*
X141174668Y-94818626D01*
X141175608Y-94819345D01*
X141180450Y-94823461D01*
X141604694Y-95223156D01*
X141606728Y-95225072D01*
X141607792Y-95226890D01*
X141612776Y-95230974D01*
X141615995Y-95233803D01*
X141619653Y-95237249D01*
X141621414Y-95238624D01*
X141622367Y-95239254D01*
X141627473Y-95243017D01*
X141634207Y-95248535D01*
X142063782Y-95600530D01*
X142080578Y-95614295D01*
X142081764Y-95616033D01*
X142087026Y-95619769D01*
X142090434Y-95622370D01*
X142094349Y-95625578D01*
X142096195Y-95626823D01*
X142097210Y-95627397D01*
X142102577Y-95630807D01*
X142575933Y-95966823D01*
X142580177Y-95969835D01*
X142581484Y-95971491D01*
X142586992Y-95974855D01*
X142590573Y-95977215D01*
X142594706Y-95980149D01*
X142596642Y-95981268D01*
X142597686Y-95981767D01*
X142603288Y-95984804D01*
X143103180Y-96290028D01*
X143104594Y-96291586D01*
X143110303Y-96294551D01*
X143114042Y-96296660D01*
X143118363Y-96299298D01*
X143120390Y-96300291D01*
X143121468Y-96300717D01*
X143127253Y-96303355D01*
X143604367Y-96551145D01*
X143647048Y-96573312D01*
X143648567Y-96574770D01*
X143654488Y-96577342D01*
X143658361Y-96579186D01*
X143662814Y-96581499D01*
X143664868Y-96582334D01*
X143665961Y-96582681D01*
X143671908Y-96584911D01*
X144209166Y-96818328D01*
X144210784Y-96819679D01*
X144216866Y-96821835D01*
X144220856Y-96823407D01*
X144225489Y-96825420D01*
X144227624Y-96826120D01*
X144228737Y-96826390D01*
X144234844Y-96828208D01*
X144238415Y-96829474D01*
X144747601Y-97009996D01*
X144786902Y-97023930D01*
X144788605Y-97025162D01*
X144794808Y-97026889D01*
X144798903Y-97028183D01*
X144803654Y-97029868D01*
X144805842Y-97030421D01*
X144806969Y-97030614D01*
X144813169Y-97032002D01*
X144863246Y-97045946D01*
X144863253Y-97045947D01*
X145366966Y-97186198D01*
X145377455Y-97189119D01*
X145379238Y-97190230D01*
X145385542Y-97191524D01*
X145389710Y-97192531D01*
X145394583Y-97193887D01*
X145396802Y-97194288D01*
X145397955Y-97194404D01*
X145404236Y-97195360D01*
X145412272Y-97197009D01*
X145455127Y-97205805D01*
X145455135Y-97205805D01*
X145964859Y-97310408D01*
X145977986Y-97313102D01*
X145979846Y-97314089D01*
X145986241Y-97314947D01*
X145990469Y-97315663D01*
X145995425Y-97316680D01*
X145997651Y-97316924D01*
X145998804Y-97316960D01*
X146005160Y-97317483D01*
X146056573Y-97324383D01*
X146056638Y-97324383D01*
X146585681Y-97395300D01*
X146587606Y-97396157D01*
X146594023Y-97396569D01*
X146598291Y-97396992D01*
X146603256Y-97397657D01*
X146603289Y-97397657D01*
X146605452Y-97397744D01*
X146606589Y-97397701D01*
X146612943Y-97397783D01*
X147197580Y-97435311D01*
X147199561Y-97436033D01*
X147206014Y-97436001D01*
X147210301Y-97436127D01*
X147215332Y-97436450D01*
X147217594Y-97436385D01*
X147218728Y-97436263D01*
X147225078Y-97435905D01*
X147810781Y-97432947D01*
X147812801Y-97433529D01*
X147819225Y-97433051D01*
X147823518Y-97432881D01*
X147828545Y-97432856D01*
X147828547Y-97432856D01*
X147830762Y-97432638D01*
X147831882Y-97432438D01*
X147838211Y-97431640D01*
X147890003Y-97427796D01*
X147890053Y-97427787D01*
X148409521Y-97389171D01*
X148422380Y-97388216D01*
X148424436Y-97388657D01*
X148430819Y-97387736D01*
X148435088Y-97387270D01*
X148440105Y-97386897D01*
X148442283Y-97386529D01*
X148443386Y-97386253D01*
X148449643Y-97385019D01*
X148475978Y-97381218D01*
X148501132Y-97377588D01*
X148501137Y-97377587D01*
X149013817Y-97303586D01*
X149029400Y-97301336D01*
X149031481Y-97301634D01*
X149037755Y-97300280D01*
X149041979Y-97299521D01*
X149047040Y-97298790D01*
X149049223Y-97298264D01*
X149050322Y-97297906D01*
X149056505Y-97296236D01*
X149107109Y-97285329D01*
X149107209Y-97285295D01*
X149628201Y-97172885D01*
X149628970Y-97172719D01*
X149631077Y-97172873D01*
X149637285Y-97171077D01*
X149641449Y-97170027D01*
X149646324Y-97168975D01*
X149646325Y-97168975D01*
X149648451Y-97168304D01*
X149649492Y-97167884D01*
X149655497Y-97165808D01*
X150218218Y-97002986D01*
X150220321Y-97002994D01*
X150226359Y-97000785D01*
X150230435Y-96999452D01*
X150235327Y-96998036D01*
X150237446Y-96997203D01*
X150238528Y-96996676D01*
X150244461Y-96994157D01*
X150247615Y-96993007D01*
X150293048Y-96976384D01*
X150293065Y-96976374D01*
X150794344Y-96792936D01*
X150796443Y-96792798D01*
X150802315Y-96790177D01*
X150806292Y-96788564D01*
X150811086Y-96786809D01*
X150813120Y-96785842D01*
X150814130Y-96785261D01*
X150819820Y-96782362D01*
X150867138Y-96761244D01*
X150867202Y-96761204D01*
X151317641Y-96560073D01*
X151354583Y-96543579D01*
X151356667Y-96543297D01*
X151362353Y-96540271D01*
X151366208Y-96538388D01*
X151370872Y-96536305D01*
X151372834Y-96535200D01*
X151373798Y-96534552D01*
X151379278Y-96531264D01*
X151425006Y-96506935D01*
X151425079Y-96506886D01*
X151896238Y-96256114D01*
X151898302Y-96255687D01*
X151903768Y-96252274D01*
X151907487Y-96250126D01*
X151911944Y-96247754D01*
X151913794Y-96246536D01*
X151914678Y-96245849D01*
X151919931Y-96242180D01*
X151963895Y-96214740D01*
X151963988Y-96214665D01*
X152367331Y-95962765D01*
X152367335Y-95962763D01*
X152416731Y-95931915D01*
X152418760Y-95931347D01*
X152423988Y-95927557D01*
X152427545Y-95925160D01*
X152431801Y-95922501D01*
X152433576Y-95921149D01*
X152434424Y-95920391D01*
X152439377Y-95916397D01*
X152481428Y-95885907D01*
X152481445Y-95885890D01*
X152893666Y-95586965D01*
X152913604Y-95572509D01*
X152915588Y-95571803D01*
X152920553Y-95567650D01*
X152923941Y-95565010D01*
X152927992Y-95562072D01*
X152929653Y-95560615D01*
X152930441Y-95559805D01*
X152935140Y-95555447D01*
X152938554Y-95552595D01*
X152974940Y-95522174D01*
X152975008Y-95522103D01*
X153357224Y-95202404D01*
X153384427Y-95179653D01*
X153386354Y-95178813D01*
X153391002Y-95174345D01*
X153394198Y-95171478D01*
X153398111Y-95168204D01*
X153399701Y-95166601D01*
X153400446Y-95165722D01*
X153404811Y-95161071D01*
X153442174Y-95125159D01*
X153442216Y-95125109D01*
X153818816Y-94763052D01*
X153826989Y-94755194D01*
X153828861Y-94754218D01*
X153833193Y-94749435D01*
X153836184Y-94746353D01*
X153839845Y-94742833D01*
X153841300Y-94741147D01*
X153841978Y-94740224D01*
X153846027Y-94735264D01*
X153880803Y-94696882D01*
X153880861Y-94696802D01*
X154239170Y-94301166D01*
X154240968Y-94300065D01*
X154244956Y-94294998D01*
X154247728Y-94291715D01*
X154251143Y-94287944D01*
X154252479Y-94286160D01*
X154253090Y-94285195D01*
X154256779Y-94279977D01*
X154288838Y-94239255D01*
X154288871Y-94239200D01*
X154604661Y-93837955D01*
X154619005Y-93819732D01*
X154620717Y-93818513D01*
X154624342Y-93813188D01*
X154626880Y-93809723D01*
X154630014Y-93805740D01*
X154631224Y-93803869D01*
X154631772Y-93802854D01*
X154635082Y-93797409D01*
X154664314Y-93754466D01*
X154664317Y-93754459D01*
X154964645Y-93313231D01*
X154966274Y-93311892D01*
X154969524Y-93306327D01*
X154971815Y-93302698D01*
X154974660Y-93298517D01*
X154975738Y-93296566D01*
X154976213Y-93295519D01*
X154979149Y-93289842D01*
X155005283Y-93245104D01*
X155005319Y-93245020D01*
X155274472Y-92784043D01*
X155276007Y-92782593D01*
X155278872Y-92776801D01*
X155280907Y-92773021D01*
X155283422Y-92768713D01*
X155283428Y-92768699D01*
X155284370Y-92766674D01*
X155284759Y-92765632D01*
X155287283Y-92759795D01*
X155291644Y-92750981D01*
X155310328Y-92713212D01*
X155310342Y-92713172D01*
X155546997Y-92234705D01*
X155548427Y-92233153D01*
X155550880Y-92227190D01*
X155552649Y-92223277D01*
X155554873Y-92218780D01*
X155555665Y-92216716D01*
X155555987Y-92215629D01*
X155558103Y-92209625D01*
X155780906Y-91667865D01*
X155782228Y-91666215D01*
X155784263Y-91660096D01*
X155785757Y-91656073D01*
X155787673Y-91651412D01*
X155788333Y-91649258D01*
X155788579Y-91648150D01*
X155790282Y-91641992D01*
X155806658Y-91592781D01*
X155806678Y-91592686D01*
X155975093Y-91086212D01*
X155976297Y-91084476D01*
X155977908Y-91078217D01*
X155979121Y-91074099D01*
X155980698Y-91069355D01*
X155980701Y-91069340D01*
X155981197Y-91067201D01*
X155981362Y-91066108D01*
X155982633Y-91059854D01*
X155984410Y-91052951D01*
X155995581Y-91009574D01*
X155995592Y-91009497D01*
X156128630Y-90492516D01*
X156129709Y-90490705D01*
X156130878Y-90484376D01*
X156131804Y-90480180D01*
X156133057Y-90475312D01*
X156133058Y-90475303D01*
X156133407Y-90473123D01*
X156133499Y-90471985D01*
X156134333Y-90465678D01*
X156240773Y-89889647D01*
X156241724Y-89887765D01*
X156242454Y-89881366D01*
X156243088Y-89877116D01*
X156244008Y-89872137D01*
X156244210Y-89869891D01*
X156244223Y-89868762D01*
X156244619Y-89862405D01*
X156250498Y-89810880D01*
X156250497Y-89810857D01*
X156310686Y-89283180D01*
X156310991Y-89280495D01*
X156311813Y-89278543D01*
X156312101Y-89272071D01*
X156312440Y-89267791D01*
X156313004Y-89262838D01*
X156313004Y-89262815D01*
X156313048Y-89260668D01*
X156312983Y-89259543D01*
X156312940Y-89253186D01*
X156313923Y-89231112D01*
X156315254Y-89201203D01*
X156315252Y-89201175D01*
X156338955Y-88667899D01*
X156339638Y-88665902D01*
X156339479Y-88659448D01*
X156339521Y-88655153D01*
X156339745Y-88650111D01*
X156339637Y-88647879D01*
X156339492Y-88646746D01*
X156339008Y-88640393D01*
X156338219Y-88608469D01*
X156337727Y-88588554D01*
X156337725Y-88588532D01*
X156324523Y-88054843D01*
X156325064Y-88052813D01*
X156324462Y-88046417D01*
X156324208Y-88042130D01*
X156324081Y-88037004D01*
X156323815Y-88034753D01*
X156323585Y-88033599D01*
X156322662Y-88027285D01*
X156317821Y-87975796D01*
X156317806Y-87975726D01*
X156273223Y-87502240D01*
X156273223Y-87502236D01*
X156267767Y-87444280D01*
X156268169Y-87442205D01*
X156267115Y-87435793D01*
X156266566Y-87431541D01*
X156266097Y-87426566D01*
X156265682Y-87424369D01*
X156265385Y-87423275D01*
X156264035Y-87417070D01*
X156168953Y-86839064D01*
X156169211Y-86836966D01*
X156167724Y-86830677D01*
X156166882Y-86826470D01*
X156166072Y-86821546D01*
X156166070Y-86821540D01*
X156165514Y-86819418D01*
X156165145Y-86818355D01*
X156163364Y-86812239D01*
X156151426Y-86761715D01*
X156151400Y-86761642D01*
X156032372Y-86258246D01*
X156028563Y-86242141D01*
X156028675Y-86240030D01*
X156026757Y-86233858D01*
X156025627Y-86229721D01*
X156024458Y-86224781D01*
X156023741Y-86222654D01*
X156023283Y-86221581D01*
X156021091Y-86215622D01*
X156005704Y-86166121D01*
X155847261Y-85656339D01*
X155847227Y-85654229D01*
X155844892Y-85648217D01*
X155843477Y-85644164D01*
X155841967Y-85639307D01*
X155841102Y-85637229D01*
X155840571Y-85636190D01*
X155837968Y-85630389D01*
X155819220Y-85582123D01*
X155819219Y-85582123D01*
X155819219Y-85582122D01*
X155633094Y-85102945D01*
X155625915Y-85084461D01*
X155625736Y-85082358D01*
X155622985Y-85076510D01*
X155621294Y-85072565D01*
X155619473Y-85067878D01*
X155618475Y-85065881D01*
X155617882Y-85064896D01*
X155614888Y-85059293D01*
X155610968Y-85050958D01*
X155592821Y-85012365D01*
X155592791Y-85012312D01*
X155371732Y-84542318D01*
X155365588Y-84529255D01*
X155365263Y-84527165D01*
X155362106Y-84521504D01*
X155360147Y-84517689D01*
X155358025Y-84513177D01*
X155358020Y-84513170D01*
X155356888Y-84511248D01*
X155356245Y-84510331D01*
X155352872Y-84504951D01*
X155067516Y-83993353D01*
X155067049Y-83991296D01*
X155063521Y-83985886D01*
X155061306Y-83982219D01*
X155058856Y-83977827D01*
X155057584Y-83975975D01*
X155056862Y-83975083D01*
X155053125Y-83969949D01*
X155048168Y-83962350D01*
X155024757Y-83926456D01*
X154733320Y-83479627D01*
X154733181Y-83479415D01*
X154732562Y-83477366D01*
X154728615Y-83472142D01*
X154726151Y-83468635D01*
X154723400Y-83464418D01*
X154722007Y-83462662D01*
X154721220Y-83461817D01*
X154717136Y-83456951D01*
X154364026Y-82989646D01*
X154363280Y-82987675D01*
X154359048Y-82982813D01*
X154356344Y-82979481D01*
X154353270Y-82975413D01*
X154351731Y-82973727D01*
X154350885Y-82972936D01*
X154346462Y-82968353D01*
X154312487Y-82929316D01*
X154312435Y-82929261D01*
X153983102Y-82550913D01*
X153953934Y-82487423D01*
X153963722Y-82418242D01*
X154009358Y-82365336D01*
X154076353Y-82345500D01*
X166385500Y-82345500D01*
X166452539Y-82365185D01*
X166498294Y-82417989D01*
X166509500Y-82469500D01*
X166509500Y-120196000D01*
X166489815Y-120263039D01*
X166437011Y-120308794D01*
X166385500Y-120320000D01*
X128694000Y-120320000D01*
X128626961Y-120300315D01*
X128581206Y-120247511D01*
X128570000Y-120196000D01*
X128570000Y-90561128D01*
X128589685Y-90494089D01*
X128642489Y-90448334D01*
X128711647Y-90438390D01*
X128775203Y-90467415D01*
X128802500Y-90503582D01*
X128803260Y-90503144D01*
X128805967Y-90507834D01*
X128914281Y-90662521D01*
X128941505Y-90701401D01*
X129108599Y-90868495D01*
X129205384Y-90936265D01*
X129302165Y-91004032D01*
X129302167Y-91004033D01*
X129302170Y-91004035D01*
X129516337Y-91103903D01*
X129744592Y-91165063D01*
X129932918Y-91181539D01*
X129979999Y-91185659D01*
X129980000Y-91185659D01*
X129980001Y-91185659D01*
X130019234Y-91182226D01*
X130215408Y-91165063D01*
X130315875Y-91138143D01*
X130385721Y-91139806D01*
X130435646Y-91170237D01*
X130654197Y-91388788D01*
X130664022Y-91401051D01*
X130664243Y-91400869D01*
X130669214Y-91406878D01*
X130695217Y-91431295D01*
X130719635Y-91454226D01*
X130740529Y-91475120D01*
X130746011Y-91479373D01*
X130750443Y-91483157D01*
X130784418Y-91515062D01*
X130801976Y-91524714D01*
X130818233Y-91535393D01*
X130834064Y-91547673D01*
X130848216Y-91553797D01*
X130876833Y-91566182D01*
X130882077Y-91568750D01*
X130922908Y-91591197D01*
X130928708Y-91592686D01*
X130942305Y-91596177D01*
X130960719Y-91602481D01*
X130979104Y-91610438D01*
X131025157Y-91617732D01*
X131030826Y-91618906D01*
X131075981Y-91630500D01*
X131096016Y-91630500D01*
X131115413Y-91632026D01*
X131135196Y-91635160D01*
X131181583Y-91630775D01*
X131187422Y-91630500D01*
X132025500Y-91630500D01*
X132092539Y-91650185D01*
X132138294Y-91702989D01*
X132149500Y-91754500D01*
X132149500Y-93277870D01*
X132149501Y-93277876D01*
X132155908Y-93337483D01*
X132206202Y-93472328D01*
X132206206Y-93472335D01*
X132292452Y-93587544D01*
X132292455Y-93587547D01*
X132407664Y-93673793D01*
X132407671Y-93673797D01*
X132539081Y-93722810D01*
X132595015Y-93764681D01*
X132619432Y-93830145D01*
X132604580Y-93898418D01*
X132583430Y-93926673D01*
X132461503Y-94048600D01*
X132325965Y-94242169D01*
X132325964Y-94242171D01*
X132226098Y-94456335D01*
X132226094Y-94456344D01*
X132164938Y-94684586D01*
X132164936Y-94684596D01*
X132144341Y-94919999D01*
X132144341Y-94920000D01*
X132164936Y-95155403D01*
X132164938Y-95155413D01*
X132226094Y-95383655D01*
X132226096Y-95383659D01*
X132226097Y-95383663D01*
X132308234Y-95559805D01*
X132325965Y-95597830D01*
X132325967Y-95597834D01*
X132396819Y-95699020D01*
X132450393Y-95775532D01*
X132461501Y-95791395D01*
X132461506Y-95791402D01*
X132628597Y-95958493D01*
X132628603Y-95958498D01*
X132814158Y-96088425D01*
X132857783Y-96143002D01*
X132864977Y-96212500D01*
X132833454Y-96274855D01*
X132814158Y-96291575D01*
X132628597Y-96421505D01*
X132461505Y-96588597D01*
X132325965Y-96782169D01*
X132325964Y-96782171D01*
X132226098Y-96996335D01*
X132226094Y-96996344D01*
X132164938Y-97224586D01*
X132164936Y-97224596D01*
X132144341Y-97459999D01*
X132144341Y-97460000D01*
X132164936Y-97695403D01*
X132164938Y-97695413D01*
X132226094Y-97923655D01*
X132226096Y-97923659D01*
X132226097Y-97923663D01*
X132305845Y-98094683D01*
X132325965Y-98137830D01*
X132325967Y-98137834D01*
X132461501Y-98331395D01*
X132461506Y-98331402D01*
X132628597Y-98498493D01*
X132628603Y-98498498D01*
X132814158Y-98628425D01*
X132857783Y-98683002D01*
X132864977Y-98752500D01*
X132833454Y-98814855D01*
X132814158Y-98831575D01*
X132628597Y-98961505D01*
X132461505Y-99128597D01*
X132325965Y-99322169D01*
X132325964Y-99322171D01*
X132226098Y-99536335D01*
X132226094Y-99536344D01*
X132164938Y-99764586D01*
X132164936Y-99764596D01*
X132144341Y-99999999D01*
X132144341Y-100000000D01*
X132164936Y-100235403D01*
X132164938Y-100235413D01*
X132226094Y-100463655D01*
X132226096Y-100463659D01*
X132226097Y-100463663D01*
X132325965Y-100677830D01*
X132325967Y-100677834D01*
X132434281Y-100832521D01*
X132461179Y-100870936D01*
X132461501Y-100871395D01*
X132461506Y-100871402D01*
X132628597Y-101038493D01*
X132628603Y-101038498D01*
X132814158Y-101168425D01*
X132857783Y-101223002D01*
X132864977Y-101292500D01*
X132833454Y-101354855D01*
X132814158Y-101371575D01*
X132628597Y-101501505D01*
X132461505Y-101668597D01*
X132325965Y-101862169D01*
X132325964Y-101862171D01*
X132226098Y-102076335D01*
X132226094Y-102076344D01*
X132164938Y-102304586D01*
X132164936Y-102304596D01*
X132144341Y-102539999D01*
X132144341Y-102540000D01*
X132164936Y-102775403D01*
X132164938Y-102775413D01*
X132226094Y-103003655D01*
X132226096Y-103003659D01*
X132226097Y-103003663D01*
X132305845Y-103174683D01*
X132325965Y-103217830D01*
X132325967Y-103217834D01*
X132461501Y-103411395D01*
X132461506Y-103411402D01*
X132628597Y-103578493D01*
X132628603Y-103578498D01*
X132814158Y-103708425D01*
X132857783Y-103763002D01*
X132864977Y-103832500D01*
X132833454Y-103894855D01*
X132814158Y-103911575D01*
X132628597Y-104041505D01*
X132461505Y-104208597D01*
X132325965Y-104402169D01*
X132325964Y-104402171D01*
X132226098Y-104616335D01*
X132226094Y-104616344D01*
X132164938Y-104844586D01*
X132164936Y-104844596D01*
X132144341Y-105079999D01*
X132144341Y-105080000D01*
X132164936Y-105315403D01*
X132164938Y-105315413D01*
X132226094Y-105543655D01*
X132226096Y-105543659D01*
X132226097Y-105543663D01*
X132294242Y-105689800D01*
X132325965Y-105757830D01*
X132325967Y-105757834D01*
X132461501Y-105951395D01*
X132461506Y-105951402D01*
X132628597Y-106118493D01*
X132628603Y-106118498D01*
X132814158Y-106248425D01*
X132857783Y-106303002D01*
X132864977Y-106372500D01*
X132833454Y-106434855D01*
X132814158Y-106451575D01*
X132628597Y-106581505D01*
X132461505Y-106748597D01*
X132325965Y-106942169D01*
X132325964Y-106942171D01*
X132226098Y-107156335D01*
X132226094Y-107156344D01*
X132164938Y-107384586D01*
X132164936Y-107384596D01*
X132144341Y-107619999D01*
X132144341Y-107620000D01*
X132164936Y-107855403D01*
X132164938Y-107855413D01*
X132226094Y-108083655D01*
X132226096Y-108083659D01*
X132226097Y-108083663D01*
X132290069Y-108220851D01*
X132325965Y-108297830D01*
X132325967Y-108297834D01*
X132434281Y-108452521D01*
X132461501Y-108491396D01*
X132461506Y-108491402D01*
X132628597Y-108658493D01*
X132628603Y-108658498D01*
X132814158Y-108788425D01*
X132857783Y-108843002D01*
X132864977Y-108912500D01*
X132833454Y-108974855D01*
X132814158Y-108991575D01*
X132628597Y-109121505D01*
X132461505Y-109288597D01*
X132325965Y-109482169D01*
X132325964Y-109482171D01*
X132226098Y-109696335D01*
X132226094Y-109696344D01*
X132164938Y-109924586D01*
X132164936Y-109924596D01*
X132144341Y-110159999D01*
X132144341Y-110160000D01*
X132164936Y-110395403D01*
X132164938Y-110395413D01*
X132226094Y-110623655D01*
X132226096Y-110623659D01*
X132226097Y-110623663D01*
X132325965Y-110837830D01*
X132325967Y-110837834D01*
X132401356Y-110945500D01*
X132461505Y-111031401D01*
X132628599Y-111198495D01*
X132821624Y-111333653D01*
X132865248Y-111388228D01*
X132874500Y-111435226D01*
X132874500Y-112389546D01*
X132854815Y-112456585D01*
X132838181Y-112477227D01*
X132559892Y-112755515D01*
X132498569Y-112789000D01*
X132449426Y-112789722D01*
X132341243Y-112769500D01*
X132118757Y-112769500D01*
X131900060Y-112810382D01*
X131768864Y-112861207D01*
X131692601Y-112890752D01*
X131692595Y-112890754D01*
X131503439Y-113007874D01*
X131503437Y-113007876D01*
X131339020Y-113157761D01*
X131204943Y-113335308D01*
X131204938Y-113335316D01*
X131105775Y-113534461D01*
X131105769Y-113534476D01*
X131044885Y-113748462D01*
X131044884Y-113748464D01*
X131024357Y-113969999D01*
X131024357Y-113970000D01*
X131044884Y-114191535D01*
X131044885Y-114191537D01*
X131105769Y-114405523D01*
X131105775Y-114405538D01*
X131204938Y-114604683D01*
X131204943Y-114604691D01*
X131235591Y-114645275D01*
X131328787Y-114768687D01*
X131339021Y-114782238D01*
X131339026Y-114782243D01*
X131389617Y-114828364D01*
X131425898Y-114888076D01*
X131424137Y-114957923D01*
X131389617Y-115011636D01*
X131339026Y-115057756D01*
X131339021Y-115057761D01*
X131204943Y-115235308D01*
X131204938Y-115235316D01*
X131105775Y-115434461D01*
X131105769Y-115434476D01*
X131044885Y-115648462D01*
X131044884Y-115648464D01*
X131024357Y-115869999D01*
X131024357Y-115870000D01*
X131044884Y-116091535D01*
X131044885Y-116091537D01*
X131105769Y-116305523D01*
X131105775Y-116305538D01*
X131204938Y-116504683D01*
X131204943Y-116504691D01*
X131339020Y-116682238D01*
X131503437Y-116832123D01*
X131503439Y-116832125D01*
X131692595Y-116949245D01*
X131692596Y-116949245D01*
X131692599Y-116949247D01*
X131900060Y-117029618D01*
X132118757Y-117070500D01*
X132118759Y-117070500D01*
X132341241Y-117070500D01*
X132341243Y-117070500D01*
X132559940Y-117029618D01*
X132767401Y-116949247D01*
X132956562Y-116832124D01*
X133120981Y-116682236D01*
X133255058Y-116504689D01*
X133354229Y-116305528D01*
X133415115Y-116091536D01*
X133425630Y-115978058D01*
X133451416Y-115913122D01*
X133508216Y-115872434D01*
X133549101Y-115865500D01*
X134825812Y-115865500D01*
X134892851Y-115885185D01*
X134927387Y-115918377D01*
X135039954Y-116079141D01*
X135200858Y-116240045D01*
X135200861Y-116240047D01*
X135387266Y-116370568D01*
X135593504Y-116466739D01*
X135813308Y-116525635D01*
X135970791Y-116539413D01*
X136039998Y-116545468D01*
X136040000Y-116545468D01*
X136040002Y-116545468D01*
X136096672Y-116540509D01*
X136266692Y-116525635D01*
X136486496Y-116466739D01*
X136692734Y-116370568D01*
X136879139Y-116240047D01*
X137040047Y-116079139D01*
X137170568Y-115892734D01*
X137197618Y-115834724D01*
X137243790Y-115782285D01*
X137310983Y-115763133D01*
X137377865Y-115783348D01*
X137422382Y-115834725D01*
X137449429Y-115892728D01*
X137449432Y-115892734D01*
X137579954Y-116079141D01*
X137740858Y-116240045D01*
X137740861Y-116240047D01*
X137927266Y-116370568D01*
X138133504Y-116466739D01*
X138353308Y-116525635D01*
X138510791Y-116539413D01*
X138579998Y-116545468D01*
X138580000Y-116545468D01*
X138580002Y-116545468D01*
X138636673Y-116540509D01*
X138806692Y-116525635D01*
X139026496Y-116466739D01*
X139232734Y-116370568D01*
X139419139Y-116240047D01*
X139580047Y-116079139D01*
X139710568Y-115892734D01*
X139737618Y-115834724D01*
X139783790Y-115782285D01*
X139850983Y-115763133D01*
X139917865Y-115783348D01*
X139962382Y-115834725D01*
X139989429Y-115892728D01*
X139989432Y-115892734D01*
X140119954Y-116079141D01*
X140280858Y-116240045D01*
X140280861Y-116240047D01*
X140467266Y-116370568D01*
X140673504Y-116466739D01*
X140893308Y-116525635D01*
X141050791Y-116539413D01*
X141119998Y-116545468D01*
X141120000Y-116545468D01*
X141120002Y-116545468D01*
X141176673Y-116540509D01*
X141346692Y-116525635D01*
X141415048Y-116507319D01*
X141484897Y-116508982D01*
X141534822Y-116539413D01*
X142274197Y-117278788D01*
X142284022Y-117291051D01*
X142284243Y-117290869D01*
X142289214Y-117296878D01*
X142310043Y-117316437D01*
X142339635Y-117344226D01*
X142360529Y-117365120D01*
X142366011Y-117369373D01*
X142370443Y-117373157D01*
X142404418Y-117405062D01*
X142421976Y-117414714D01*
X142438235Y-117425395D01*
X142454064Y-117437673D01*
X142496838Y-117456182D01*
X142502056Y-117458738D01*
X142542908Y-117481197D01*
X142562316Y-117486180D01*
X142580717Y-117492480D01*
X142599104Y-117500437D01*
X142642488Y-117507308D01*
X142645119Y-117507725D01*
X142650839Y-117508909D01*
X142695981Y-117520500D01*
X142716016Y-117520500D01*
X142735414Y-117522026D01*
X142755194Y-117525159D01*
X142755195Y-117525160D01*
X142755195Y-117525159D01*
X142755196Y-117525160D01*
X142801583Y-117520775D01*
X142807422Y-117520500D01*
X163162257Y-117520500D01*
X163177877Y-117522224D01*
X163177904Y-117521939D01*
X163185660Y-117522671D01*
X163185667Y-117522673D01*
X163254814Y-117520500D01*
X163284350Y-117520500D01*
X163291228Y-117519630D01*
X163297041Y-117519172D01*
X163343627Y-117517709D01*
X163362869Y-117512117D01*
X163381912Y-117508174D01*
X163401792Y-117505664D01*
X163445122Y-117488507D01*
X163450646Y-117486617D01*
X163454396Y-117485527D01*
X163495390Y-117473618D01*
X163512629Y-117463422D01*
X163530103Y-117454862D01*
X163548727Y-117447488D01*
X163548727Y-117447487D01*
X163548732Y-117447486D01*
X163586449Y-117420082D01*
X163591305Y-117416892D01*
X163631420Y-117393170D01*
X163645589Y-117378999D01*
X163660379Y-117366368D01*
X163676587Y-117354594D01*
X163706299Y-117318676D01*
X163710212Y-117314376D01*
X164784286Y-116240302D01*
X164796548Y-116230480D01*
X164796365Y-116230259D01*
X164802367Y-116225292D01*
X164802377Y-116225286D01*
X164849741Y-116174848D01*
X164870620Y-116153970D01*
X164874873Y-116148486D01*
X164878650Y-116144063D01*
X164910562Y-116110082D01*
X164920214Y-116092523D01*
X164930889Y-116076272D01*
X164943174Y-116060436D01*
X164961686Y-116017652D01*
X164964242Y-116012435D01*
X164986697Y-115971592D01*
X164991680Y-115952180D01*
X164997977Y-115933791D01*
X165005938Y-115915395D01*
X165013229Y-115869353D01*
X165014408Y-115863662D01*
X165026000Y-115818519D01*
X165026000Y-115798482D01*
X165027527Y-115779082D01*
X165028668Y-115771879D01*
X165030660Y-115759304D01*
X165026275Y-115712915D01*
X165026000Y-115707077D01*
X165026000Y-114768687D01*
X165045685Y-114701648D01*
X165057850Y-114685715D01*
X165094262Y-114645275D01*
X165133033Y-114602216D01*
X165227679Y-114438284D01*
X165286174Y-114258256D01*
X165305960Y-114070000D01*
X165286174Y-113881744D01*
X165227679Y-113701716D01*
X165133033Y-113537784D01*
X165006371Y-113397112D01*
X165006370Y-113397111D01*
X164853234Y-113285851D01*
X164853229Y-113285848D01*
X164680307Y-113208857D01*
X164680302Y-113208855D01*
X164534501Y-113177865D01*
X164495146Y-113169500D01*
X164305854Y-113169500D01*
X164273397Y-113176398D01*
X164120697Y-113208855D01*
X164120692Y-113208857D01*
X163947770Y-113285848D01*
X163947766Y-113285851D01*
X163884778Y-113331614D01*
X163818972Y-113355093D01*
X163750918Y-113339267D01*
X163712940Y-113306022D01*
X163600981Y-113157764D01*
X163454144Y-113023904D01*
X163417863Y-112964193D01*
X163419624Y-112894345D01*
X163450000Y-112844588D01*
X164363787Y-111930802D01*
X164376042Y-111920986D01*
X164375859Y-111920764D01*
X164381866Y-111915792D01*
X164381877Y-111915786D01*
X164416429Y-111878992D01*
X164429227Y-111865364D01*
X164439671Y-111854918D01*
X164450120Y-111844471D01*
X164454379Y-111838978D01*
X164458152Y-111834561D01*
X164490062Y-111800582D01*
X164499713Y-111783024D01*
X164510396Y-111766761D01*
X164522673Y-111750936D01*
X164541185Y-111708153D01*
X164543738Y-111702941D01*
X164566197Y-111662092D01*
X164571180Y-111642680D01*
X164577481Y-111624280D01*
X164585437Y-111605896D01*
X164592729Y-111559852D01*
X164593906Y-111554171D01*
X164605500Y-111509019D01*
X164605500Y-111488982D01*
X164607027Y-111469582D01*
X164610160Y-111449804D01*
X164605775Y-111403415D01*
X164605500Y-111397577D01*
X164605500Y-93732737D01*
X164607224Y-93717123D01*
X164606938Y-93717096D01*
X164607672Y-93709333D01*
X164606555Y-93673797D01*
X164605500Y-93640203D01*
X164605500Y-93610650D01*
X164604629Y-93603759D01*
X164604172Y-93597945D01*
X164603845Y-93587547D01*
X164602709Y-93551373D01*
X164601852Y-93548425D01*
X164597122Y-93532144D01*
X164593174Y-93513084D01*
X164592271Y-93505933D01*
X164590664Y-93493208D01*
X164573507Y-93449875D01*
X164571619Y-93444359D01*
X164558619Y-93399612D01*
X164557489Y-93397702D01*
X164552277Y-93388889D01*
X164548418Y-93382363D01*
X164539860Y-93364894D01*
X164532486Y-93346268D01*
X164532483Y-93346264D01*
X164532483Y-93346263D01*
X164505098Y-93308571D01*
X164501890Y-93303687D01*
X164478172Y-93263582D01*
X164478163Y-93263571D01*
X164464005Y-93249413D01*
X164451370Y-93234620D01*
X164439593Y-93218412D01*
X164403693Y-93188713D01*
X164399381Y-93184790D01*
X163210803Y-91996212D01*
X163200980Y-91983950D01*
X163200759Y-91984134D01*
X163195786Y-91978123D01*
X163145364Y-91930773D01*
X163130926Y-91916335D01*
X163124475Y-91909883D01*
X163118986Y-91905625D01*
X163114561Y-91901847D01*
X163080582Y-91869938D01*
X163080580Y-91869936D01*
X163080577Y-91869935D01*
X163063029Y-91860288D01*
X163046763Y-91849604D01*
X163030933Y-91837325D01*
X162988168Y-91818818D01*
X162982922Y-91816248D01*
X162942093Y-91793803D01*
X162942092Y-91793802D01*
X162922693Y-91788822D01*
X162904281Y-91782518D01*
X162885898Y-91774562D01*
X162885892Y-91774560D01*
X162839874Y-91767272D01*
X162834152Y-91766087D01*
X162789021Y-91754500D01*
X162789019Y-91754500D01*
X162768984Y-91754500D01*
X162749586Y-91752973D01*
X162735897Y-91750805D01*
X162729805Y-91749840D01*
X162729803Y-91749839D01*
X162724376Y-91750353D01*
X162655782Y-91737064D01*
X162611133Y-91698026D01*
X162478494Y-91508597D01*
X162311402Y-91341506D01*
X162311395Y-91341501D01*
X162117834Y-91205967D01*
X162117830Y-91205965D01*
X162074284Y-91185659D01*
X161903663Y-91106097D01*
X161903659Y-91106096D01*
X161903655Y-91106094D01*
X161675413Y-91044938D01*
X161675403Y-91044936D01*
X161440001Y-91024341D01*
X161439999Y-91024341D01*
X161204596Y-91044936D01*
X161204586Y-91044938D01*
X160976344Y-91106094D01*
X160976335Y-91106098D01*
X160762171Y-91205964D01*
X160762169Y-91205965D01*
X160568597Y-91341505D01*
X160401505Y-91508597D01*
X160265965Y-91702169D01*
X160265964Y-91702171D01*
X160166098Y-91916335D01*
X160166094Y-91916344D01*
X160104938Y-92144586D01*
X160104936Y-92144596D01*
X160084341Y-92379999D01*
X160084341Y-92380000D01*
X160104936Y-92615403D01*
X160104938Y-92615413D01*
X160166094Y-92843655D01*
X160166096Y-92843659D01*
X160166097Y-92843663D01*
X160265965Y-93057830D01*
X160265967Y-93057834D01*
X160401501Y-93251395D01*
X160401506Y-93251402D01*
X160568597Y-93418493D01*
X160568603Y-93418498D01*
X160754158Y-93548425D01*
X160797783Y-93603002D01*
X160804977Y-93672500D01*
X160773454Y-93734855D01*
X160754158Y-93751575D01*
X160568597Y-93881505D01*
X160401505Y-94048597D01*
X160265965Y-94242169D01*
X160265964Y-94242171D01*
X160166098Y-94456335D01*
X160166094Y-94456344D01*
X160104938Y-94684586D01*
X160104936Y-94684596D01*
X160084341Y-94919999D01*
X160084341Y-94920000D01*
X160104937Y-95155408D01*
X160131855Y-95255873D01*
X160130192Y-95325723D01*
X160099761Y-95375646D01*
X159786208Y-95689199D01*
X159773951Y-95699020D01*
X159774134Y-95699241D01*
X159768123Y-95704213D01*
X159720772Y-95754636D01*
X159699889Y-95775519D01*
X159699877Y-95775532D01*
X159695621Y-95781017D01*
X159691837Y-95785447D01*
X159659937Y-95819418D01*
X159659936Y-95819420D01*
X159650284Y-95836976D01*
X159639610Y-95853226D01*
X159627329Y-95869061D01*
X159627324Y-95869068D01*
X159608815Y-95911838D01*
X159606245Y-95917084D01*
X159583803Y-95957906D01*
X159578822Y-95977307D01*
X159572521Y-95995710D01*
X159564562Y-96014102D01*
X159564561Y-96014105D01*
X159557271Y-96060127D01*
X159556087Y-96065846D01*
X159544501Y-96110972D01*
X159544500Y-96110982D01*
X159544500Y-96131016D01*
X159542973Y-96150415D01*
X159539840Y-96170194D01*
X159539840Y-96170195D01*
X159544225Y-96216583D01*
X159544500Y-96222421D01*
X159544500Y-96819123D01*
X159524815Y-96886162D01*
X159472011Y-96931917D01*
X159402853Y-96941861D01*
X159339297Y-96912836D01*
X159309500Y-96874396D01*
X159287131Y-96829474D01*
X159285058Y-96825311D01*
X159264593Y-96798210D01*
X159150979Y-96647761D01*
X158986562Y-96497876D01*
X158986560Y-96497874D01*
X158797404Y-96380754D01*
X158797398Y-96380752D01*
X158589940Y-96300382D01*
X158371243Y-96259500D01*
X158148757Y-96259500D01*
X157930060Y-96300382D01*
X157798864Y-96351207D01*
X157722601Y-96380752D01*
X157722595Y-96380754D01*
X157533439Y-96497874D01*
X157533437Y-96497876D01*
X157393538Y-96625411D01*
X157330734Y-96656028D01*
X157261347Y-96647830D01*
X157226462Y-96625411D01*
X157086562Y-96497876D01*
X157086560Y-96497874D01*
X156897404Y-96380754D01*
X156897398Y-96380752D01*
X156689940Y-96300382D01*
X156528796Y-96270258D01*
X156466516Y-96238590D01*
X156431243Y-96178278D01*
X156434177Y-96108470D01*
X156463899Y-96060691D01*
X158838788Y-93685801D01*
X158851042Y-93675986D01*
X158850859Y-93675764D01*
X158856866Y-93670792D01*
X158856877Y-93670786D01*
X158897527Y-93627498D01*
X158904227Y-93620364D01*
X158914671Y-93609918D01*
X158925120Y-93599471D01*
X158929379Y-93593978D01*
X158933152Y-93589561D01*
X158965062Y-93555582D01*
X158974715Y-93538020D01*
X158985389Y-93521770D01*
X158997673Y-93505936D01*
X159016180Y-93463167D01*
X159018749Y-93457924D01*
X159023166Y-93449889D01*
X159041197Y-93417092D01*
X159046177Y-93397691D01*
X159052478Y-93379288D01*
X159060438Y-93360896D01*
X159067730Y-93314849D01*
X159068911Y-93309152D01*
X159080500Y-93264019D01*
X159080500Y-93243983D01*
X159082027Y-93224582D01*
X159085160Y-93204804D01*
X159080775Y-93158415D01*
X159080500Y-93152577D01*
X159080500Y-91728051D01*
X159100185Y-91661012D01*
X159152989Y-91615257D01*
X159191251Y-91604761D01*
X159193891Y-91604477D01*
X159197483Y-91604091D01*
X159332331Y-91553796D01*
X159447546Y-91467546D01*
X159533796Y-91352331D01*
X159584091Y-91217483D01*
X159590500Y-91157873D01*
X159590500Y-89319499D01*
X159610185Y-89252461D01*
X159662989Y-89206706D01*
X159714500Y-89195500D01*
X161116252Y-89195500D01*
X161183291Y-89215185D01*
X161208400Y-89236526D01*
X161214126Y-89242885D01*
X161214130Y-89242889D01*
X161367265Y-89354148D01*
X161367270Y-89354151D01*
X161540192Y-89431142D01*
X161540197Y-89431144D01*
X161725354Y-89470500D01*
X161725355Y-89470500D01*
X161914644Y-89470500D01*
X161914646Y-89470500D01*
X162099803Y-89431144D01*
X162272730Y-89354151D01*
X162425871Y-89242888D01*
X162552533Y-89102216D01*
X162647179Y-88938284D01*
X162705674Y-88758256D01*
X162725460Y-88570000D01*
X162705674Y-88381744D01*
X162647179Y-88201716D01*
X162552533Y-88037784D01*
X162425871Y-87897112D01*
X162425870Y-87897111D01*
X162272734Y-87785851D01*
X162272729Y-87785848D01*
X162099807Y-87708857D01*
X162099802Y-87708855D01*
X161954000Y-87677865D01*
X161914646Y-87669500D01*
X161725354Y-87669500D01*
X161692897Y-87676398D01*
X161540197Y-87708855D01*
X161540192Y-87708857D01*
X161367270Y-87785848D01*
X161367265Y-87785851D01*
X161214130Y-87897110D01*
X161214126Y-87897114D01*
X161208400Y-87903474D01*
X161148913Y-87940121D01*
X161116252Y-87944500D01*
X159714499Y-87944500D01*
X159647460Y-87924815D01*
X159601705Y-87872011D01*
X159590499Y-87820500D01*
X159590499Y-85982129D01*
X159590498Y-85982123D01*
X159590497Y-85982116D01*
X159584091Y-85922517D01*
X159533796Y-85787669D01*
X159533795Y-85787668D01*
X159533793Y-85787664D01*
X159447547Y-85672455D01*
X159447544Y-85672452D01*
X159332335Y-85586206D01*
X159332328Y-85586202D01*
X159197482Y-85535908D01*
X159197483Y-85535908D01*
X159137883Y-85529501D01*
X159137881Y-85529500D01*
X159137873Y-85529500D01*
X159137864Y-85529500D01*
X157772129Y-85529500D01*
X157772123Y-85529501D01*
X157712516Y-85535908D01*
X157577671Y-85586202D01*
X157577664Y-85586206D01*
X157462455Y-85672452D01*
X157462452Y-85672455D01*
X157376206Y-85787664D01*
X157376202Y-85787671D01*
X157325908Y-85922517D01*
X157319501Y-85982116D01*
X157319501Y-85982123D01*
X157319500Y-85982135D01*
X157319500Y-91157870D01*
X157319501Y-91157876D01*
X157325908Y-91217483D01*
X157376202Y-91352328D01*
X157376206Y-91352335D01*
X157462452Y-91467544D01*
X157462455Y-91467547D01*
X157577664Y-91553793D01*
X157577671Y-91553797D01*
X157712517Y-91604091D01*
X157712515Y-91604091D01*
X157718756Y-91604762D01*
X157783307Y-91631500D01*
X157823155Y-91688893D01*
X157829500Y-91728051D01*
X157829500Y-92874546D01*
X157809815Y-92941585D01*
X157793181Y-92962227D01*
X152396208Y-98359199D01*
X152383951Y-98369020D01*
X152384134Y-98369241D01*
X152378123Y-98374213D01*
X152330772Y-98424636D01*
X152309889Y-98445519D01*
X152309877Y-98445532D01*
X152305621Y-98451017D01*
X152301837Y-98455447D01*
X152269937Y-98489418D01*
X152269936Y-98489420D01*
X152260284Y-98506976D01*
X152249610Y-98523226D01*
X152237329Y-98539061D01*
X152237324Y-98539068D01*
X152218815Y-98581838D01*
X152216245Y-98587084D01*
X152193803Y-98627906D01*
X152188822Y-98647307D01*
X152182521Y-98665710D01*
X152174562Y-98684102D01*
X152174561Y-98684105D01*
X152167271Y-98730127D01*
X152166087Y-98735846D01*
X152154501Y-98780972D01*
X152154500Y-98780982D01*
X152154500Y-98801016D01*
X152152973Y-98820415D01*
X152149840Y-98840194D01*
X152149840Y-98840195D01*
X152154225Y-98886583D01*
X152154500Y-98892421D01*
X152154500Y-100059235D01*
X152134815Y-100126274D01*
X152082011Y-100172029D01*
X152073834Y-100175417D01*
X151937669Y-100226203D01*
X151937665Y-100226205D01*
X151888004Y-100263381D01*
X151822539Y-100287797D01*
X151768902Y-100279740D01*
X151582324Y-100207460D01*
X151381928Y-100170000D01*
X151178072Y-100170000D01*
X150977678Y-100207460D01*
X150787588Y-100281100D01*
X150787584Y-100281102D01*
X150699310Y-100335758D01*
X151280000Y-100916447D01*
X151333553Y-100970000D01*
X151252198Y-100970000D01*
X151169750Y-100985412D01*
X151074390Y-101044457D01*
X151006799Y-101133962D01*
X150976105Y-101241840D01*
X150986454Y-101353521D01*
X151036448Y-101453922D01*
X151119334Y-101529484D01*
X151223920Y-101570000D01*
X151307802Y-101570000D01*
X151339470Y-101564080D01*
X150699310Y-102204240D01*
X150699311Y-102204241D01*
X150787581Y-102258895D01*
X150787588Y-102258899D01*
X150977678Y-102332539D01*
X151178072Y-102370000D01*
X151381928Y-102370000D01*
X151582326Y-102332538D01*
X151768902Y-102260259D01*
X151838525Y-102254396D01*
X151888005Y-102276617D01*
X151937665Y-102313793D01*
X151937668Y-102313795D01*
X151937671Y-102313797D01*
X152072517Y-102364091D01*
X152072516Y-102364091D01*
X152079444Y-102364835D01*
X152132127Y-102370500D01*
X153427872Y-102370499D01*
X153487483Y-102364091D01*
X153622331Y-102313796D01*
X153737546Y-102227546D01*
X153823796Y-102112331D01*
X153874091Y-101977483D01*
X153880500Y-101917873D01*
X153880499Y-100622128D01*
X153874091Y-100562517D01*
X153837221Y-100463664D01*
X153823797Y-100427671D01*
X153823793Y-100427664D01*
X153737547Y-100312455D01*
X153737544Y-100312452D01*
X153622335Y-100226206D01*
X153622330Y-100226203D01*
X153486166Y-100175417D01*
X153430233Y-100133545D01*
X153405816Y-100068081D01*
X153405500Y-100059235D01*
X153405500Y-99170452D01*
X153425185Y-99103413D01*
X153441819Y-99082771D01*
X153709735Y-98814855D01*
X153982821Y-98541768D01*
X154044142Y-98508285D01*
X154113833Y-98513269D01*
X154169767Y-98555140D01*
X154194184Y-98620605D01*
X154194500Y-98629451D01*
X154194500Y-102499546D01*
X154174815Y-102566585D01*
X154158181Y-102587227D01*
X152529078Y-104216331D01*
X152467755Y-104249816D01*
X152441397Y-104252650D01*
X152382204Y-104252650D01*
X152349747Y-104259548D01*
X152197047Y-104292005D01*
X152197042Y-104292007D01*
X152024120Y-104368998D01*
X152024115Y-104369001D01*
X151870979Y-104480261D01*
X151744316Y-104620935D01*
X151649671Y-104784865D01*
X151649668Y-104784872D01*
X151591177Y-104964890D01*
X151591176Y-104964894D01*
X151571390Y-105153150D01*
X151591176Y-105341406D01*
X151591177Y-105341409D01*
X151651679Y-105527615D01*
X151650138Y-105528115D01*
X151658349Y-105589300D01*
X151628727Y-105652580D01*
X151569597Y-105689800D01*
X151535782Y-105694500D01*
X148273748Y-105694500D01*
X148206709Y-105674815D01*
X148181600Y-105653474D01*
X148175873Y-105647114D01*
X148175869Y-105647110D01*
X148022734Y-105535851D01*
X148022729Y-105535848D01*
X147849807Y-105458857D01*
X147849802Y-105458855D01*
X147704000Y-105427865D01*
X147664646Y-105419500D01*
X147475354Y-105419500D01*
X147442897Y-105426398D01*
X147290197Y-105458855D01*
X147290192Y-105458857D01*
X147117270Y-105535848D01*
X147117265Y-105535851D01*
X146964129Y-105647111D01*
X146837466Y-105787785D01*
X146742821Y-105951715D01*
X146742818Y-105951722D01*
X146687136Y-106123095D01*
X146684326Y-106131744D01*
X146678315Y-106188938D01*
X146671732Y-106251567D01*
X146645147Y-106316182D01*
X146587849Y-106356166D01*
X146518030Y-106358826D01*
X146516318Y-106358380D01*
X146426697Y-106334366D01*
X146426693Y-106334365D01*
X146426692Y-106334365D01*
X146426691Y-106334364D01*
X146426686Y-106334364D01*
X146200002Y-106314532D01*
X146199999Y-106314532D01*
X145973313Y-106334364D01*
X145973296Y-106334367D01*
X145904949Y-106352680D01*
X145835099Y-106351016D01*
X145785177Y-106320586D01*
X141086819Y-101622227D01*
X141053334Y-101560904D01*
X141050500Y-101534546D01*
X141050500Y-101270000D01*
X150175287Y-101270000D01*
X150194096Y-101472989D01*
X150194097Y-101472992D01*
X150249883Y-101669063D01*
X150249886Y-101669069D01*
X150340754Y-101851556D01*
X150340755Y-101851557D01*
X150342533Y-101853912D01*
X150926447Y-101270000D01*
X150926447Y-101269999D01*
X150342533Y-100686085D01*
X150340754Y-100688443D01*
X150249886Y-100870930D01*
X150249883Y-100870936D01*
X150194097Y-101067007D01*
X150194096Y-101067010D01*
X150175287Y-101269999D01*
X150175287Y-101270000D01*
X141050500Y-101270000D01*
X141050500Y-97037742D01*
X141052224Y-97022122D01*
X141051939Y-97022095D01*
X141052673Y-97014333D01*
X141050500Y-96945172D01*
X141050500Y-96915656D01*
X141050500Y-96915650D01*
X141049631Y-96908779D01*
X141049173Y-96902952D01*
X141047710Y-96856373D01*
X141042119Y-96837130D01*
X141038173Y-96818078D01*
X141035664Y-96798208D01*
X141018504Y-96754867D01*
X141016624Y-96749379D01*
X141003618Y-96704610D01*
X140993422Y-96687370D01*
X140984861Y-96669894D01*
X140977487Y-96651270D01*
X140974940Y-96647764D01*
X140950079Y-96613545D01*
X140946888Y-96608686D01*
X140923172Y-96568583D01*
X140923165Y-96568574D01*
X140909006Y-96554415D01*
X140896368Y-96539619D01*
X140895474Y-96538388D01*
X140884594Y-96523413D01*
X140864675Y-96506935D01*
X140848688Y-96493709D01*
X140844376Y-96489786D01*
X136176771Y-91822180D01*
X136143286Y-91760857D01*
X136148270Y-91691165D01*
X136190142Y-91635232D01*
X136255606Y-91610815D01*
X136264452Y-91610499D01*
X137167871Y-91610499D01*
X137167872Y-91610499D01*
X137227483Y-91604091D01*
X137362331Y-91553796D01*
X137477546Y-91467546D01*
X137563796Y-91352331D01*
X137614091Y-91217483D01*
X137620500Y-91157873D01*
X137620499Y-85982128D01*
X137614091Y-85922517D01*
X137563796Y-85787669D01*
X137563795Y-85787668D01*
X137563793Y-85787664D01*
X137477547Y-85672455D01*
X137477544Y-85672452D01*
X137362335Y-85586206D01*
X137362328Y-85586202D01*
X137227482Y-85535908D01*
X137227483Y-85535908D01*
X137167883Y-85529501D01*
X137167881Y-85529500D01*
X137167873Y-85529500D01*
X137167864Y-85529500D01*
X135802129Y-85529500D01*
X135802123Y-85529501D01*
X135742516Y-85535908D01*
X135607671Y-85586202D01*
X135607664Y-85586206D01*
X135492455Y-85672452D01*
X135492452Y-85672455D01*
X135406206Y-85787664D01*
X135406202Y-85787671D01*
X135355908Y-85922517D01*
X135349501Y-85982116D01*
X135349501Y-85982123D01*
X135349500Y-85982135D01*
X135349500Y-88552582D01*
X135329815Y-88619621D01*
X135277011Y-88665376D01*
X135207853Y-88675320D01*
X135163125Y-88657628D01*
X135162271Y-88659109D01*
X135157579Y-88656400D01*
X134943492Y-88556570D01*
X134943483Y-88556566D01*
X134715326Y-88495432D01*
X134715315Y-88495430D01*
X134480002Y-88474843D01*
X134479998Y-88474843D01*
X134244684Y-88495430D01*
X134244673Y-88495432D01*
X134016516Y-88556566D01*
X134016507Y-88556570D01*
X133802419Y-88656401D01*
X133718625Y-88715072D01*
X134347466Y-89343913D01*
X134337685Y-89345320D01*
X134206900Y-89405048D01*
X134098239Y-89499202D01*
X134020507Y-89620156D01*
X133996923Y-89700476D01*
X133365072Y-89068625D01*
X133306401Y-89152419D01*
X133206570Y-89366507D01*
X133206566Y-89366516D01*
X133145432Y-89594673D01*
X133145430Y-89594684D01*
X133124843Y-89829998D01*
X133124843Y-89830001D01*
X133145430Y-90065315D01*
X133145432Y-90065325D01*
X133187790Y-90223407D01*
X133186127Y-90293256D01*
X133146965Y-90351119D01*
X133082736Y-90378623D01*
X133068015Y-90379500D01*
X131465452Y-90379500D01*
X131398413Y-90359815D01*
X131377771Y-90343181D01*
X131320237Y-90285647D01*
X131286752Y-90224324D01*
X131288143Y-90165872D01*
X131289503Y-90160798D01*
X131315063Y-90065408D01*
X131335659Y-89830000D01*
X131315063Y-89594592D01*
X131253903Y-89366337D01*
X131154035Y-89152171D01*
X131152153Y-89149482D01*
X131018494Y-88958597D01*
X130851402Y-88791506D01*
X130851395Y-88791501D01*
X130657834Y-88655967D01*
X130657830Y-88655965D01*
X130645276Y-88650111D01*
X130443663Y-88556097D01*
X130443659Y-88556096D01*
X130443655Y-88556094D01*
X130215413Y-88494938D01*
X130215403Y-88494936D01*
X129980001Y-88474341D01*
X129979999Y-88474341D01*
X129744596Y-88494936D01*
X129744586Y-88494938D01*
X129516344Y-88556094D01*
X129516335Y-88556098D01*
X129302171Y-88655964D01*
X129302169Y-88655965D01*
X129108597Y-88791505D01*
X128941505Y-88958597D01*
X128805965Y-89152169D01*
X128803257Y-89156861D01*
X128802069Y-89156175D01*
X128760206Y-89203717D01*
X128693012Y-89222867D01*
X128626131Y-89202649D01*
X128580799Y-89149482D01*
X128570000Y-89098871D01*
X128570000Y-84633710D01*
X128589685Y-84566671D01*
X128642489Y-84520916D01*
X128711647Y-84510972D01*
X128768312Y-84534444D01*
X128772451Y-84537543D01*
X128772454Y-84537546D01*
X128875708Y-84614842D01*
X128887668Y-84623795D01*
X128887671Y-84623797D01*
X129022517Y-84674091D01*
X129022516Y-84674091D01*
X129029444Y-84674835D01*
X129082127Y-84680500D01*
X130877872Y-84680499D01*
X130937483Y-84674091D01*
X131072331Y-84623796D01*
X131187546Y-84537546D01*
X131273796Y-84422331D01*
X131324091Y-84287483D01*
X131330500Y-84227873D01*
X131330499Y-82469499D01*
X131350184Y-82402461D01*
X131402987Y-82356706D01*
X131454499Y-82345500D01*
X133283107Y-82345500D01*
X133350146Y-82365185D01*
G37*
G04 #@! TD.AperFunction*
G04 #@! TA.AperFunction,Conductor*
G36*
X136290000Y-108898872D02*
G01*
X136486317Y-108846269D01*
X136486326Y-108846265D01*
X136692482Y-108750134D01*
X136878820Y-108619657D01*
X137039657Y-108458820D01*
X137170132Y-108272484D01*
X137197341Y-108214134D01*
X137243513Y-108161695D01*
X137310707Y-108142542D01*
X137377588Y-108162757D01*
X137422105Y-108214132D01*
X137425734Y-108221913D01*
X137449431Y-108272732D01*
X137449432Y-108272734D01*
X137579954Y-108459141D01*
X137740858Y-108620045D01*
X137740861Y-108620047D01*
X137927266Y-108750568D01*
X138133504Y-108846739D01*
X138353308Y-108905635D01*
X138510780Y-108919412D01*
X138579998Y-108925468D01*
X138580000Y-108925468D01*
X138580002Y-108925468D01*
X138649220Y-108919412D01*
X138806692Y-108905635D01*
X139026496Y-108846739D01*
X139232734Y-108750568D01*
X139419139Y-108620047D01*
X139580047Y-108459139D01*
X139710568Y-108272734D01*
X139737618Y-108214724D01*
X139783790Y-108162285D01*
X139850983Y-108143133D01*
X139917865Y-108163348D01*
X139962381Y-108214724D01*
X139965734Y-108221913D01*
X139989429Y-108272728D01*
X139989432Y-108272734D01*
X140119954Y-108459141D01*
X140280858Y-108620045D01*
X140280861Y-108620047D01*
X140467266Y-108750568D01*
X140673504Y-108846739D01*
X140893308Y-108905635D01*
X141050780Y-108919412D01*
X141119998Y-108925468D01*
X141120000Y-108925468D01*
X141120002Y-108925468D01*
X141189220Y-108919412D01*
X141346692Y-108905635D01*
X141566496Y-108846739D01*
X141589866Y-108835840D01*
X141658942Y-108825346D01*
X141722727Y-108853864D01*
X141741248Y-108875878D01*
X141742050Y-108875257D01*
X141746833Y-108881424D01*
X141760990Y-108895580D01*
X141773627Y-108910375D01*
X141785406Y-108926587D01*
X141816675Y-108952455D01*
X141821309Y-108956288D01*
X141825620Y-108960210D01*
X142092090Y-109226680D01*
X142319194Y-109453784D01*
X142329019Y-109466048D01*
X142329240Y-109465866D01*
X142334210Y-109471873D01*
X142334213Y-109471876D01*
X142334214Y-109471877D01*
X142384651Y-109519241D01*
X142405529Y-109540119D01*
X142411004Y-109544366D01*
X142415446Y-109548160D01*
X142449415Y-109580060D01*
X142449417Y-109580061D01*
X142449418Y-109580062D01*
X142466976Y-109589714D01*
X142483237Y-109600396D01*
X142499064Y-109612673D01*
X142541823Y-109631176D01*
X142547073Y-109633748D01*
X142587904Y-109656195D01*
X142587908Y-109656197D01*
X142587912Y-109656198D01*
X142607311Y-109661179D01*
X142625722Y-109667483D01*
X142644097Y-109675435D01*
X142644100Y-109675435D01*
X142644105Y-109675438D01*
X142690149Y-109682729D01*
X142695832Y-109683906D01*
X142740981Y-109695500D01*
X142761016Y-109695500D01*
X142780413Y-109697026D01*
X142800196Y-109700160D01*
X142846583Y-109695775D01*
X142852422Y-109695500D01*
X144760546Y-109695500D01*
X144827585Y-109715185D01*
X144873340Y-109767989D01*
X144883284Y-109837147D01*
X144854259Y-109900703D01*
X144848227Y-109907181D01*
X143276208Y-111479199D01*
X143263951Y-111489020D01*
X143264134Y-111489241D01*
X143258123Y-111494213D01*
X143210772Y-111544636D01*
X143189889Y-111565519D01*
X143189877Y-111565532D01*
X143185621Y-111571017D01*
X143181837Y-111575447D01*
X143149937Y-111609418D01*
X143149936Y-111609420D01*
X143140284Y-111626976D01*
X143129610Y-111643226D01*
X143117329Y-111659061D01*
X143117324Y-111659068D01*
X143098815Y-111701838D01*
X143096245Y-111707084D01*
X143073803Y-111747906D01*
X143068822Y-111767307D01*
X143062521Y-111785710D01*
X143054562Y-111804102D01*
X143054561Y-111804105D01*
X143047271Y-111850127D01*
X143046087Y-111855846D01*
X143034501Y-111900972D01*
X143034500Y-111900982D01*
X143034500Y-111921016D01*
X143032973Y-111940415D01*
X143029840Y-111960194D01*
X143029840Y-111960195D01*
X143034225Y-112006583D01*
X143034500Y-112012421D01*
X143034500Y-114025811D01*
X143014815Y-114092850D01*
X142981623Y-114127386D01*
X142820861Y-114239951D01*
X142795877Y-114264936D01*
X142734553Y-114298420D01*
X142664861Y-114293434D01*
X142620516Y-114264934D01*
X142086794Y-113731212D01*
X142076971Y-113718950D01*
X142076750Y-113719134D01*
X142071777Y-113713123D01*
X142053150Y-113695631D01*
X142021355Y-113665773D01*
X142010910Y-113655328D01*
X142000466Y-113644883D01*
X141994977Y-113640625D01*
X141990552Y-113636847D01*
X141956573Y-113604938D01*
X141956571Y-113604936D01*
X141956568Y-113604935D01*
X141939020Y-113595288D01*
X141922754Y-113584604D01*
X141906924Y-113572325D01*
X141864159Y-113553818D01*
X141858913Y-113551248D01*
X141818084Y-113528803D01*
X141818083Y-113528802D01*
X141798684Y-113523822D01*
X141780272Y-113517518D01*
X141761889Y-113509562D01*
X141761883Y-113509560D01*
X141715865Y-113502272D01*
X141710143Y-113501087D01*
X141665012Y-113489500D01*
X141665010Y-113489500D01*
X141644975Y-113489500D01*
X141625577Y-113487973D01*
X141618153Y-113486797D01*
X141605796Y-113484840D01*
X141605795Y-113484840D01*
X141559407Y-113489225D01*
X141553569Y-113489500D01*
X139787737Y-113489500D01*
X139772120Y-113487776D01*
X139772093Y-113488062D01*
X139764331Y-113487327D01*
X139695203Y-113489500D01*
X139665650Y-113489500D01*
X139664929Y-113489590D01*
X139658757Y-113490369D01*
X139652945Y-113490826D01*
X139606373Y-113492290D01*
X139606372Y-113492290D01*
X139587129Y-113497881D01*
X139568079Y-113501825D01*
X139548211Y-113504334D01*
X139548209Y-113504335D01*
X139504884Y-113521488D01*
X139499357Y-113523380D01*
X139454610Y-113536381D01*
X139454609Y-113536382D01*
X139437367Y-113546579D01*
X139419899Y-113555137D01*
X139401269Y-113562513D01*
X139401267Y-113562514D01*
X139363576Y-113589898D01*
X139358694Y-113593105D01*
X139318579Y-113616830D01*
X139304408Y-113631000D01*
X139289623Y-113643628D01*
X139273412Y-113655407D01*
X139243709Y-113691310D01*
X139239777Y-113695631D01*
X138994821Y-113940586D01*
X138933498Y-113974071D01*
X138875048Y-113972680D01*
X138806697Y-113954366D01*
X138806693Y-113954365D01*
X138806692Y-113954365D01*
X138693345Y-113944448D01*
X138580001Y-113934532D01*
X138579998Y-113934532D01*
X138353313Y-113954364D01*
X138353302Y-113954366D01*
X138133511Y-114013258D01*
X138133502Y-114013261D01*
X137927267Y-114109431D01*
X137927265Y-114109432D01*
X137740858Y-114239954D01*
X137579954Y-114400858D01*
X137449432Y-114587265D01*
X137449431Y-114587267D01*
X137422382Y-114645275D01*
X137376209Y-114697714D01*
X137309016Y-114716866D01*
X137242135Y-114696650D01*
X137197618Y-114645275D01*
X137196962Y-114643868D01*
X137170568Y-114587266D01*
X137040047Y-114400861D01*
X137040045Y-114400858D01*
X136879141Y-114239954D01*
X136692734Y-114109432D01*
X136692732Y-114109431D01*
X136486497Y-114013261D01*
X136486488Y-114013258D01*
X136266697Y-113954366D01*
X136266693Y-113954365D01*
X136266692Y-113954365D01*
X136266691Y-113954364D01*
X136266686Y-113954364D01*
X136040002Y-113934532D01*
X136039998Y-113934532D01*
X135813313Y-113954364D01*
X135813302Y-113954366D01*
X135593511Y-114013258D01*
X135593502Y-114013261D01*
X135387267Y-114109431D01*
X135387265Y-114109432D01*
X135200858Y-114239954D01*
X135039954Y-114400858D01*
X134927387Y-114561623D01*
X134872811Y-114605248D01*
X134825812Y-114614500D01*
X133450441Y-114614500D01*
X133383402Y-114594815D01*
X133337647Y-114542011D01*
X133327703Y-114472853D01*
X133339440Y-114435229D01*
X133343855Y-114426361D01*
X133354229Y-114405528D01*
X133415115Y-114191536D01*
X133435643Y-113970000D01*
X133415115Y-113748464D01*
X133415112Y-113748454D01*
X133414685Y-113746167D01*
X133414798Y-113745046D01*
X133414586Y-113742755D01*
X133415034Y-113742713D01*
X133421713Y-113676651D01*
X133448889Y-113635699D01*
X133883787Y-113200802D01*
X133896042Y-113190986D01*
X133895859Y-113190764D01*
X133901866Y-113185792D01*
X133901877Y-113185786D01*
X133932775Y-113152882D01*
X133949227Y-113135364D01*
X133959671Y-113124918D01*
X133970120Y-113114471D01*
X133974379Y-113108978D01*
X133978152Y-113104561D01*
X134010062Y-113070582D01*
X134019713Y-113053024D01*
X134030396Y-113036761D01*
X134042673Y-113020936D01*
X134061185Y-112978153D01*
X134063738Y-112972941D01*
X134086197Y-112932092D01*
X134091180Y-112912680D01*
X134097481Y-112894280D01*
X134105437Y-112875896D01*
X134112725Y-112829877D01*
X134113906Y-112824171D01*
X134125500Y-112779019D01*
X134125499Y-112758986D01*
X134127027Y-112739583D01*
X134130159Y-112719808D01*
X134130160Y-112719806D01*
X134125775Y-112673415D01*
X134125500Y-112667577D01*
X134125500Y-111435226D01*
X134145185Y-111368187D01*
X134178374Y-111333654D01*
X134371401Y-111198495D01*
X134538495Y-111031401D01*
X134674035Y-110837830D01*
X134773903Y-110623663D01*
X134835063Y-110395408D01*
X134855659Y-110160000D01*
X134835063Y-109924592D01*
X134773903Y-109696337D01*
X134674035Y-109482171D01*
X134666825Y-109471873D01*
X134538494Y-109288597D01*
X134371402Y-109121506D01*
X134371396Y-109121501D01*
X134185842Y-108991575D01*
X134142217Y-108936998D01*
X134135023Y-108867500D01*
X134166546Y-108805145D01*
X134185842Y-108788425D01*
X134298054Y-108709853D01*
X134371401Y-108658495D01*
X134538495Y-108491401D01*
X134674035Y-108297830D01*
X134685479Y-108273287D01*
X134731649Y-108220851D01*
X134798842Y-108201698D01*
X134865724Y-108221913D01*
X134906043Y-108268442D01*
X134907161Y-108267797D01*
X134909865Y-108272481D01*
X135040342Y-108458820D01*
X135201179Y-108619657D01*
X135387517Y-108750134D01*
X135593673Y-108846265D01*
X135593682Y-108846269D01*
X135789999Y-108898872D01*
X135790000Y-108898871D01*
X135790000Y-107935686D01*
X135801955Y-107947641D01*
X135914852Y-108005165D01*
X136008519Y-108020000D01*
X136071481Y-108020000D01*
X136165148Y-108005165D01*
X136278045Y-107947641D01*
X136290000Y-107935685D01*
X136290000Y-108898872D01*
G37*
G04 #@! TD.AperFunction*
G04 #@! TA.AperFunction,Conductor*
G36*
X151579356Y-101243641D02*
G01*
X151579132Y-101246765D01*
X151578738Y-101242509D01*
X151579356Y-101243641D01*
G37*
G04 #@! TD.AperFunction*
M02*
